<?xml version="1.0" encoding="utf-8"?>
<!-- Generator: Adobe Illustrator 27.5.0, SVG Export Plug-In . SVG Version: 6.00 Build 0)  -->
<svg version="1.1" id="Camada_1" xmlns="http://www.w3.org/2000/svg" xmlns:xlink="http://www.w3.org/1999/xlink" x="0px" y="0px"
	 viewBox="0 0 800 800" style="enable-background:new 0 0 800 800;" xml:space="preserve">
<style type="text/css">
	.st0{fill:#F57C00;}
</style>
<g id="Layer_2">
	<g id="Layer_1-2">
		<path class="st0" d="M150,450c0,55.2,44.8,100,100,100s100-44.8,100-100s-44.8-100-100-100S150,394.8,150,450z M300,450
			c0,27.6-22.4,50-50,50s-50-22.4-50-50s22.4-50,50-50S300,422.4,300,450z M375,600H125C56,600,0,656,0,725c0,41.4,33.6,75,75,75
			l0,0h350c41.4,0,75-33.6,75-75l0,0C500,656,444,600,375,600z M425,750H75c-13.8,0-25-11.2-25-25c0-41.4,33.6-75,75-75h250
			c41.4,0,75,33.6,75,75C450,738.8,438.8,750,425,750z M800,25v400c0,13.8-11.2,25-25,25H500v50h125c13.8,0,25,11.2,25,25
			c0,13.8-11.2,25-25,25H425c-13.8,0-25-11.2-25-25c0-13.8,11.2-25,25-25h25v-50h-25c-13.8,0-25-11.2-25-25s11.2-25,25-25h325V50
			H200v225c0,13.8-11.2,25-25,25s-25-11.2-25-25V25c0-13.8,11.2-25,25-25h600C788.8,0,800,11.2,800,25z M325,300
			c-6.6,0.1-13-2.6-17.5-7.5c-9.7-9.1-10.1-24.3-1.1-33.9c0.3-0.4,0.7-0.7,1.1-1.1l100-100c9.1-9.7,24.3-10.1,33.9-1.1
			c0.4,0.3,0.7,0.7,1.1,1.1l82.5,82l132.5-132c9.7-9.7,25.3-9.7,35,0c9.7,9.7,9.7,25.3,0,35l-150,150c-9.1,9.7-24.3,10.1-33.9,1.1
			c-0.4-0.3-0.7-0.7-1.1-1.1l-82.5-82l-82.5,82C338,297.4,331.6,300.1,325,300z"/>
	</g>
</g>
</svg>
