<?xml version="1.0" encoding="utf-8"?>
<!-- Generator: Adobe Illustrator 27.5.0, SVG Export Plug-In . SVG Version: 6.00 Build 0)  -->
<svg version="1.1" id="Camada_1" xmlns="http://www.w3.org/2000/svg" xmlns:xlink="http://www.w3.org/1999/xlink" x="0px" y="0px"
	 viewBox="0 0 800 800" style="enable-background:new 0 0 800 800;" xml:space="preserve">
<style type="text/css">
	.st0{fill:#F57C00;}
	.st1{fill:none;stroke:#F57C00;stroke-width:50;stroke-miterlimit:133.3333;}
</style>
<path class="st0" d="M250.2,508.8c3.7,13.3,17.4,21.1,30.8,17.4c13.3-3.7,21.1-17.4,17.4-30.8L250.2,508.8z M202.6,242.5l24.1-6.7
	l0,0L202.6,242.5z M156.8,197.3l-6.7,24.1L156.8,197.3z M106.7,157.5c-13.3-3.7-27.1,4.1-30.8,17.4c-3.7,13.3,4.1,27.1,17.4,30.8
	L106.7,157.5z M673,524.2c13.4-3.5,21.4-17.1,17.9-30.5c-3.5-13.4-17.1-21.4-30.5-17.9L673,524.2z M339.9,585.3
	c10.3,37.4-12.3,76.8-52.5,87.2l12.6,48.4c65.9-17.1,106.2-83.4,88.1-148.9L339.9,585.3z M287.5,672.5
	c-40.4,10.5-80.9-12.9-91.3-50.6l-48.2,13.3c18,65.2,86.5,102.8,152.1,85.7L287.5,672.5z M196.1,621.9
	c-10.3-37.4,12.3-76.8,52.5-87.2L236,486.3c-65.9,17.1-106.2,83.4-88.1,148.9L196.1,621.9z M248.6,534.7
	c40.4-10.5,80.9,12.9,91.3,50.6l48.2-13.3c-18-65.2-86.5-102.8-152.1-85.7L248.6,534.7z M298.4,495.5l-71.7-259.7l-48.2,13.3
	l71.7,259.7L298.4,495.5z M163.5,173.2l-56.8-15.8l-13.4,48.2l56.8,15.8L163.5,173.2z M226.7,235.8c-8.4-30.5-32.6-54.1-63.2-62.6
	l-13.4,48.2c14.2,3.9,24.8,14.7,28.4,27.7L226.7,235.8z M370.3,602.8L673,524.2l-12.6-48.4l-302.6,78.6L370.3,602.8z"/>
<path class="st1" d="M318.8,291c-16.2-58.5-24.3-87.8-10.5-110.8c13.7-23.1,43.9-30.9,104.2-46.6l64-16.6
	c60.3-15.7,90.5-23.5,114.3-10.2c23.8,13.3,31.9,42.6,48,101.1l17.1,62.1c16.2,58.5,24.3,87.8,10.5,110.8
	c-13.7,23.1-43.9,30.9-104.2,46.6l-64,16.6c-60.3,15.7-90.5,23.5-114.3,10.2c-23.8-13.3-31.8-42.6-48-101.1L318.8,291z"/>
</svg>
