<?xml version="1.0" encoding="utf-8"?>
<!-- Generator: Adobe Illustrator 27.5.0, SVG Export Plug-In . SVG Version: 6.00 Build 0)  -->
<svg version="1.1" id="Camada_1" xmlns="http://www.w3.org/2000/svg" xmlns:xlink="http://www.w3.org/1999/xlink" x="0px" y="0px"
	 viewBox="0 0 1000 1000" style="enable-background:new 0 0 1000 1000;" xml:space="preserve">
<style type="text/css">
	.st0{fill:#325F8C;}
	.st1{clip-path:url(#SVGID_00000049181605102011284170000017667711764982076327_);}
	.st2{clip-path:url(#SVGID_00000142867668890941099900000001302783046213770378_);}
	.st3{fill:#F57C00;}
</style>
<path class="st0" d="M781.8,407.1h-0.4l-46.4-1.6c-5.4-0.2-9.7-4.8-9.5-10.2c0.2-5.4,4.6-9.5,10.1-9.4l46.5,1.7
	c5.4,0.2,9.6,4.7,9.4,10.1C791.4,403,787.1,407.1,781.8,407.1z M782.9,456.2c-1.1,4.4-5.1,7.5-9.5,7.5c-0.8,0-1.6-0.1-2.4-0.3
	l-18.6-4.7c-5.3-1.3-8.4-6.7-7.1-11.9s6.7-8.4,11.9-7.1l18.6,4.7C781.1,445.7,784.2,451,782.9,456.2z M764.3,510.8
	c-1.7,3.6-5.2,5.7-8.9,5.7c-1.4,0-2.8-0.3-4.2-0.9l-42-19.7c-4.9-2.3-7-8.1-4.8-13c2.3-4.9,8.1-7.1,13.1-4.7l42.1,19.6
	C764.5,500.1,766.5,505.9,764.3,510.8z M732.8,559.7c-2,2.5-4.9,3.8-7.8,3.8c-2.1,0-4.2-0.6-6-2l-15.2-11.8
	c-4.3-3.3-5.1-9.5-1.7-13.8c3.3-4.3,9.5-5,13.7-1.8l15.2,11.8C735.4,549.2,736.2,555.4,732.8,559.7z M694.8,604.3
	c-1.8,1.6-4.2,2.5-6.6,2.5c-2.7,0-5.3-1.1-7.3-3.3l-31-34.6c-3.6-4-3.3-10.2,0.8-13.9c4-3.6,10.2-3.3,13.8,0.8l31,34.6
	C699.2,594.5,698.8,600.7,694.8,604.3z M641.1,165.2l10.9-15.8c3.1-4.4,9.2-5.6,13.6-2.5c4.5,3.1,5.5,9.2,2.5,13.7l-10.9,15.8
	c-1.9,2.8-5,4.2-8,4.2c-2,0-3.8-0.6-5.5-1.7C639.2,175.7,638,169.7,641.1,165.2z M622.3,358.9c-1.8,2.7-4.9,4.3-8.1,4.3h-0.7
	l-32.5-2.5l-36.5,17.5c0.4,2.3,0.6,4.8,0.6,7.3c0,24.9-20.2,45-45,45c-13.3,0-25.2-5.8-33.5-15L346.6,473c-1.4,0.6-2.8,1-4.3,1
	c-3.7,0-7.2-2.1-8.8-5.6c-2.4-4.8-0.3-10.7,4.6-13.1l118.8-56.9c-1.2-4-1.9-8.4-1.9-12.9c0-24.8,20.2-45,45-45
	c15.4,0,28.9,7.7,37.1,19.5l35.4-17l18.4-26.9c2-2.9,5.4-4.5,8.8-4.2c3.5,0.3,6.6,2.4,8.1,5.5l15.2,31.8
	C624.5,352.3,624.3,356,622.3,358.9z M350,569l-31,34.6c-1.9,2.2-4.6,3.3-7.3,3.3c-2.4,0-4.7-0.9-6.5-2.5c-4.1-3.7-4.4-9.8-0.8-13.9
	l31-34.6c3.6-4.1,9.8-4.4,13.8-0.8C353.3,558.7,353.7,564.9,350,569z M296.1,549.7l-15.2,11.8c-1.8,1.4-3.8,2-6,2
	c-2.9,0-5.8-1.3-7.8-3.8c-3.3-4.3-2.5-10.5,1.7-13.8l15.2-11.8c4.3-3.3,10.4-2.5,13.7,1.8C301.2,540.2,300.4,546.3,296.1,549.7z
	 M244.6,516.5c-3.7,0-7.2-2.1-8.9-5.7c-2.3-4.9-0.2-10.7,4.7-13l42.1-19.6c4.9-2.4,10.8-0.2,13.1,4.7c2.3,4.9,0.1,10.7-4.8,13
	l-42,19.7C247.4,516.1,246,516.5,244.6,516.5z M226.6,463.7c-4.4,0-8.4-3-9.5-7.5c-1.3-5.2,1.8-10.5,7.1-11.9l18.6-4.7
	c5.2-1.3,10.6,1.9,11.9,7.1c1.3,5.2-1.8,10.6-7.1,11.9l-18.6,4.7C228.2,463.5,227.4,463.7,226.6,463.7z M208.4,397.6
	c-0.2-5.4,4-9.9,9.4-10.1l46.5-1.7c5.1-0.2,9.9,4,10.1,9.4c0.2,5.4-4,10-9.5,10.2l-46.4,1.6h-0.3C212.9,407.1,208.6,403,208.4,397.6
	z M212.1,339.7c0.8-5.3,5.9-8.9,11.2-8l19,3.1c5.4,0.9,9,5.9,8.1,11.3c-0.8,4.8-5,8.2-9.7,8.2c-0.5,0-1,0-1.6-0.1l-19-3.1
	C214.8,350.1,211.1,345.1,212.1,339.7z M227.5,282.7c1.9-5,7.6-7.6,12.6-5.6l43.4,16.6c5.1,2,7.6,7.6,5.7,12.7
	c-1.5,3.8-5.2,6.3-9.2,6.3c-1.2,0-2.4-0.2-3.5-0.6l-43.4-16.6C228.1,293.5,225.5,287.8,227.5,282.7z M254.9,228.8
	c2.9-4.6,8.9-5.9,13.5-2.9l16.1,10.5c4.6,2.9,5.9,8.9,2.9,13.5c-1.9,2.9-5,4.5-8.3,4.5c-1.8,0-3.7-0.5-5.3-1.6l-16.1-10.5
	C253.3,239.4,251.9,233.3,254.9,228.8z M290,184.5c3.7-3.9,9.9-4,13.9-0.3l33.4,32.3c3.9,3.7,4,9.9,0.3,13.9c-1.9,2-4.5,3-7.1,3
	c-2.4,0-4.9-0.9-6.8-2.7l-33.5-32.3C286.3,194.6,286.2,188.4,290,184.5z M334.3,146.8c2.2-1.5,4.9-2,7.3-1.5
	c0.4,0.1,0.8,0.2,1.2,0.3c2.7,0.9,4.3,2.7,5.2,3.8c0,0,2.1,3,2.1,3.1c0.1,0.1,8.7,12.7,8.8,12.8c0.8,1.3,1.1,2.5,1.3,3.3
	c0.2,0.8,0.8,3.7-0.6,6.6c-0.4,0.9-0.9,1.6-1.1,1.8c-0.3,0.3-1,1.2-2.1,1.9c-0.3,0.2-1.2,0.8-2.7,1.3c-0.6,0.2-1.6,0.5-2.8,0.4
	c-1.8,0-3.1-0.7-4.1-1.2c-1.8-0.9-3-2.1-3.9-3.1c0,0-3-4.4-3.1-4.4c-0.1-0.2-7.7-11.2-7.8-11.4c-0.3-0.5-2.9-5.3-0.7-9.9
	C332.1,148.5,333.7,147.3,334.3,146.8z M385.9,118.5c5-2.1,10.8,0.2,12.9,5.2l18.2,42.8c2.1,5-0.2,10.7-5.1,12.9
	c-1.3,0.5-2.5,0.8-3.8,0.8c-3.8,0-7.5-2.3-9-6l-18.2-42.7C378.6,126.4,380.9,120.6,385.9,118.5z M439.1,101.7
	c5.3-1.1,10.5,2.3,11.6,7.6l4.1,18.7c1.1,5.3-2.3,10.5-7.6,11.6c-0.6,0.1-1.4,0.3-2,0.3c-4.5,0-8.6-3.2-9.6-7.8l-4-18.8
	C430.4,108,433.8,102.8,439.1,101.7z M490.2,105.1c0-5.4,4.4-9.8,9.8-9.8c5.4,0,9.8,4.4,9.8,9.8v46.5c0,5.4-4.4,9.8-9.8,9.8
	c-5.4,0-9.8-4.4-9.8-9.8V105.1z M545.2,128l4-18.7c1.1-5.3,6.4-8.7,11.6-7.6c5.3,1.1,8.6,6.3,7.5,11.6l-4,18.8
	c-1,4.6-5.1,7.8-9.6,7.8c-0.6,0-1.4-0.1-2-0.3C547.5,138.6,544.1,133.3,545.2,128z M583.1,166.5l18.2-42.8c2.1-5,7.9-7.3,12.9-5.2
	c5,2.2,7.3,7.9,5.2,12.9l-18.2,42.7c-1.6,3.7-5.2,6-9,6c-1.3,0-2.5-0.3-3.8-0.8C583.3,177.2,581,171.4,583.1,166.5z M710,184.5
	c3.8,3.9,3.7,10.1-0.2,13.9l-33.4,32.3c-1.9,1.8-4.4,2.7-6.8,2.7c-2.6,0-5.1-1-7-3c-3.8-3.9-3.7-10.1,0.2-13.9l33.4-32.3
	C700.1,180.5,706.3,180.6,710,184.5z M715.4,236.3l16.1-10.5c4.5-2.9,10.6-1.6,13.5,2.9c3,4.5,1.6,10.6-2.9,13.5l-16.1,10.5
	c-1.6,1.1-3.5,1.6-5.4,1.6c-3.2,0-6.3-1.6-8.2-4.5C709.5,245.3,710.8,239.2,715.4,236.3z M772.5,282.7c2,5.1-0.6,10.8-5.6,12.7
	L723.5,312c-1.2,0.5-2.4,0.6-3.5,0.6c-3.9,0-7.6-2.4-9.2-6.3c-1.9-5.1,0.6-10.7,5.7-12.7l43.4-16.6
	C764.9,275.2,770.6,277.7,772.5,282.7z M787.9,339.7c0.9,5.4-2.8,10.4-8.1,11.3l-18.9,3.1c-0.5,0.1-1.1,0.1-1.6,0.1
	c-4.7,0-8.9-3.4-9.7-8.2c-0.9-5.4,2.8-10.4,8.1-11.3l19-3.1C782,330.8,787.1,334.4,787.9,339.7z M500,77.3
	c-169.9,0-308.2,138.2-308.2,308.2c0,170,138.2,308.2,308.2,308.2s308.2-138.2,308.2-308.2C808.2,215.5,669.9,77.3,500,77.3"/>
<g>
	<defs>
		<rect id="SVGID_1_" x="126.5" y="11.6" width="747" height="747.7"/>
	</defs>
	<clipPath id="SVGID_00000061439880092155929350000011146530350269533370_">
		<use xlink:href="#SVGID_1_"  style="overflow:visible;"/>
	</clipPath>
	<g style="clip-path:url(#SVGID_00000061439880092155929350000011146530350269533370_);">
		<path class="st0" d="M500.1,714C319,714,171.5,566.6,171.5,385.3c0-181.3,147.5-328.6,328.7-328.6
			c181.2,0,328.7,147.4,328.7,328.6C828.8,566.6,681.3,714,500.1,714z M500.1,11.6c-206,0-373.6,167.7-373.6,373.7
			c0,206,167.6,373.7,373.6,373.7c206,0,373.7-167.7,373.7-373.7C873.8,179.3,706.2,11.6,500.1,11.6"/>
	</g>
</g>
<path class="st0" d="M475.6,778.9v55.2h65v-55.2H475.6z M601.7,819.2v-56.5c-13.5,4.4-27.3,7.9-41.5,10.6v60.8l38.2-10.5
	C600.4,823.1,601.7,821.3,601.7,819.2z M417.8,823.6c-2-0.6-3.3-2.3-3.3-4.4v-51.8c13.5,3.7,27.4,6.5,41.5,8.4v58.3L417.8,823.6"/>
<g>
	<defs>
		<rect id="SVGID_00000168827459922115699320000013704517173490296224_" x="446.5" y="852.9" width="118.8" height="135.5"/>
	</defs>
	<clipPath id="SVGID_00000069400392127188141440000007750852558348335251_">
		<use xlink:href="#SVGID_00000168827459922115699320000013704517173490296224_"  style="overflow:visible;"/>
	</clipPath>
	<g style="clip-path:url(#SVGID_00000069400392127188141440000007750852558348335251_);">
		<path class="st0" d="M550.6,988.4c8.1,0,14.6-6.6,14.6-14.6v-11.4l-92.8,26H550.6z M547.6,918.1l-0.1,0l-89.6,25
			c-6,1.7-10.1,7.1-10.1,13.4v0.1c0,9.2,8.8,15.8,17.6,13.3l0.1,0l89.6-25.1c6-1.7,10.1-7.1,10.1-13.3v-0.1
			C565.2,922.3,556.4,915.7,547.6,918.1z M465.8,853.7h-18v22.7l81.3-22.7H465.8z M565.2,882.3c0,6.2-4.1,11.7-10.1,13.4l-89.6,25.1
			c-8.9,2.5-17.6-4.2-17.6-13.4c0-6.2,4.1-11.7,10.1-13.4l89.6-25.1C556.4,866.5,565.2,873.1,565.2,882.3"/>
	</g>
</g>
<path class="st3" d="M334.3,146.8c2.2-1.5,4.9-2,7.3-1.5c0.4,0.1,0.8,0.2,1.2,0.3c2.7,0.9,4.3,2.7,5.2,3.8c0,0,2.1,3,2.1,3.1
	c0.1,0.1,8.7,12.7,8.8,12.8c0.8,1.3,1.1,2.5,1.3,3.3c0.2,0.8,0.8,3.7-0.6,6.6c-0.4,0.9-0.9,1.6-1.1,1.8c-0.3,0.3-1,1.2-2.1,1.9
	c-0.3,0.2-1.2,0.8-2.7,1.3c-0.6,0.2-1.6,0.5-2.8,0.4c-1.8,0-3.1-0.7-4.1-1.2c-1.8-0.9-3-2.1-3.9-3.1c0,0-3-4.4-3.1-4.4
	c-0.1-0.2-7.7-11.2-7.8-11.4c-0.3-0.5-2.9-5.3-0.7-9.9C332.1,148.5,333.7,147.3,334.3,146.8z"/>
<path class="st3" d="M290,184.5c3.7-3.9,9.9-4,13.9-0.3l33.4,32.3c3.9,3.7,4,9.9,0.3,13.9c-1.9,2-4.5,3-7.1,3
	c-2.4,0-4.9-0.9-6.8-2.7l-33.5-32.3C286.3,194.6,286.2,188.4,290,184.5z"/>
<path class="st3" d="M254.9,228.8c2.9-4.6,8.9-5.9,13.5-2.9l16.1,10.5c4.6,2.9,5.9,8.9,2.9,13.5c-1.9,2.9-5,4.5-8.3,4.5
	c-1.8,0-3.7-0.5-5.3-1.6l-16.1-10.5C253.3,239.4,251.9,233.3,254.9,228.8z"/>
<path class="st3" d="M781.8,407.1h-0.4l-46.4-1.6c-5.4-0.2-9.7-4.8-9.5-10.2c0.2-5.4,4.6-9.5,10.1-9.4l46.5,1.7
	c5.4,0.2,9.6,4.7,9.4,10.1C791.4,403,787.1,407.1,781.8,407.1z"/>
<path class="st3" d="M782.9,456.2c-1.1,4.4-5.1,7.5-9.5,7.5c-0.8,0-1.6-0.1-2.4-0.3l-18.6-4.7c-5.3-1.3-8.4-6.7-7.1-11.9
	s6.7-8.4,11.9-7.1l18.6,4.7C781.1,445.7,784.2,451,782.9,456.2z"/>
<path class="st3" d="M764.3,510.8c-1.7,3.6-5.2,5.7-8.9,5.7c-1.4,0-2.8-0.3-4.2-0.9l-42-19.7c-4.9-2.3-7-8.1-4.8-13
	c2.3-4.9,8.1-7.1,13.1-4.7l42.1,19.6C764.5,500.1,766.5,505.9,764.3,510.8z"/>
<path class="st3" d="M732.8,559.7c-2,2.5-4.9,3.8-7.8,3.8c-2.1,0-4.2-0.6-6-2l-15.2-11.8c-4.3-3.3-5.1-9.5-1.7-13.8
	c3.3-4.3,9.5-5,13.7-1.8l15.2,11.8C735.4,549.2,736.2,555.4,732.8,559.7z"/>
<path class="st3" d="M694.8,604.3c-1.8,1.6-4.2,2.5-6.6,2.5c-2.7,0-5.3-1.1-7.3-3.3l-31-34.6c-3.6-4-3.3-10.2,0.8-13.9
	c4-3.6,10.2-3.3,13.8,0.8l31,34.6C699.2,594.5,698.8,600.7,694.8,604.3z"/>
<path class="st3" d="M641.1,165.2l10.9-15.8c3.1-4.4,9.2-5.6,13.6-2.5c4.5,3.1,5.5,9.2,2.5,13.7l-10.9,15.8c-1.9,2.8-5,4.2-8,4.2
	c-2,0-3.8-0.6-5.5-1.7C639.2,175.7,638,169.7,641.1,165.2z"/>
<path class="st3" d="M350,569l-31,34.6c-1.9,2.2-4.6,3.3-7.3,3.3c-2.4,0-4.7-0.9-6.5-2.5c-4.1-3.7-4.4-9.8-0.8-13.9l31-34.6
	c3.6-4.1,9.8-4.4,13.8-0.8C353.3,558.7,353.7,564.9,350,569z"/>
<path class="st3" d="M296.1,549.7l-15.2,11.8c-1.8,1.4-3.8,2-6,2c-2.9,0-5.8-1.3-7.8-3.8c-3.3-4.3-2.5-10.5,1.7-13.8l15.2-11.8
	c4.3-3.3,10.4-2.5,13.7,1.8C301.2,540.2,300.4,546.3,296.1,549.7z"/>
<path class="st3" d="M244.6,516.5c-3.7,0-7.2-2.1-8.9-5.7c-2.3-4.9-0.2-10.7,4.7-13l42.1-19.6c4.9-2.4,10.8-0.2,13.1,4.7
	c2.3,4.9,0.1,10.7-4.8,13l-42,19.7C247.4,516.1,246,516.5,244.6,516.5z"/>
<path class="st3" d="M226.6,463.7c-4.4,0-8.4-3-9.5-7.5c-1.3-5.2,1.8-10.5,7.1-11.9l18.6-4.7c5.2-1.3,10.6,1.9,11.9,7.1
	c1.3,5.2-1.8,10.6-7.1,11.9l-18.6,4.7C228.2,463.5,227.4,463.7,226.6,463.7z"/>
<path class="st3" d="M208.4,397.6c-0.2-5.4,4-9.9,9.4-10.1l46.5-1.7c5.1-0.2,9.9,4,10.1,9.4c0.2,5.4-4,10-9.5,10.2l-46.4,1.6h-0.3
	C212.9,407.1,208.6,403,208.4,397.6z"/>
<path class="st3" d="M227.5,282.7c1.9-5,7.6-7.6,12.6-5.6l43.4,16.6c5.1,2,7.6,7.6,5.7,12.7c-1.5,3.8-5.2,6.3-9.2,6.3
	c-1.2,0-2.4-0.2-3.5-0.6l-43.4-16.6C228.1,293.5,225.5,287.8,227.5,282.7z"/>
<path class="st3" d="M385.9,118.5c5-2.1,10.8,0.2,12.9,5.2l18.2,42.8c2.1,5-0.2,10.7-5.1,12.9c-1.3,0.5-2.5,0.8-3.8,0.8
	c-3.8,0-7.5-2.3-9-6l-18.2-42.7C378.6,126.4,380.9,120.6,385.9,118.5z"/>
<path class="st3" d="M439.3,101.7c5.3-1.1,10.5,2.3,11.6,7.6L455,128c1.1,5.3-2.3,10.5-7.6,11.6c-0.6,0.1-1.4,0.3-2,0.3
	c-4.5,0-8.6-3.2-9.6-7.8l-4-18.8C430.7,108,434,102.8,439.3,101.7z"/>
<path class="st3" d="M490.2,105.1c0-5.4,4.4-9.8,9.8-9.8c5.4,0,9.8,4.4,9.8,9.8v46.5c0,5.4-4.4,9.8-9.8,9.8c-5.4,0-9.8-4.4-9.8-9.8
	V105.1z"/>
<path class="st3" d="M545.2,128l4-18.7c1.1-5.3,6.4-8.7,11.6-7.6c5.3,1.1,8.6,6.3,7.5,11.6l-4,18.8c-1,4.6-5.1,7.8-9.6,7.8
	c-0.6,0-1.4-0.1-2-0.3C547.5,138.6,544.1,133.3,545.2,128z"/>
<path class="st3" d="M583.1,166.5l18.2-42.8c2.1-5,7.9-7.3,12.9-5.2c5,2.2,7.3,7.9,5.2,12.9l-18.2,42.7c-1.6,3.7-5.2,6-9,6
	c-1.3,0-2.5-0.3-3.8-0.8C583.3,177.2,581,171.4,583.1,166.5z"/>
<path class="st3" d="M710,184.5c3.8,3.9,3.7,10.1-0.2,13.9l-33.4,32.3c-1.9,1.8-4.4,2.7-6.8,2.7c-2.6,0-5.1-1-7-3
	c-3.8-3.9-3.7-10.1,0.2-13.9l33.4-32.3C700.1,180.5,706.3,180.6,710,184.5z"/>
<path class="st3" d="M715.4,236.3l16.1-10.5c4.5-2.9,10.6-1.6,13.5,2.9c3,4.5,1.6,10.6-2.9,13.5l-16.1,10.5
	c-1.6,1.1-3.5,1.6-5.4,1.6c-3.2,0-6.3-1.6-8.2-4.5C709.5,245.3,710.8,239.2,715.4,236.3z"/>
<path class="st3" d="M772.5,282.7c2,5.1-0.6,10.8-5.6,12.7L723.5,312c-1.2,0.5-2.4,0.6-3.5,0.6c-3.9,0-7.6-2.4-9.2-6.3
	c-1.9-5.1,0.6-10.7,5.7-12.7l43.4-16.6C764.9,275.2,770.6,277.7,772.5,282.7z"/>
<path class="st3" d="M787.9,339.7c0.9,5.4-2.8,10.4-8.1,11.3l-18.9,3.1c-0.5,0.1-1.1,0.1-1.6,0.1c-4.7,0-8.9-3.4-9.7-8.2
	c-0.9-5.4,2.8-10.4,8.1-11.3l19-3.1C782,330.8,787.1,334.4,787.9,339.7z"/>
<path class="st3" d="M212.1,339.7c0.8-5.3,5.9-8.9,11.2-8l19,3.1c5.4,0.9,9,5.9,8.1,11.3c-0.8,4.8-5,8.2-9.7,8.2c-0.5,0-1,0-1.6-0.1
	l-19-3.1C214.8,350.1,211.1,345.1,212.1,339.7z"/>
<path class="st3" d="M622.3,358.9c-1.8,2.7-4.9,4.3-8.1,4.3h-0.7l-32.5-2.5l-36.5,17.5c0.4,2.3,0.6,4.8,0.6,7.3
	c0,24.9-20.2,45-45,45c-13.3,0-25.2-5.8-33.5-15L346.6,473c-1.4,0.6-2.8,1-4.3,1c-3.7,0-7.2-2.1-8.8-5.6c-2.4-4.8-0.3-10.7,4.6-13.1
	l118.8-56.9c-1.2-4-1.9-8.4-1.9-12.9c0-24.8,20.2-45,45-45c15.4,0,28.9,7.7,37.1,19.5l35.4-17l18.4-26.9c2-2.9,5.4-4.5,8.8-4.2
	c3.5,0.3,6.6,2.4,8.1,5.5l15.2,31.8C624.5,352.3,624.3,356,622.3,358.9z"/>
<path class="st0" d="M474.6,385.5c0-14,11.4-25.5,25.4-25.5c14,0,25.4,11.4,25.4,25.5c0,14-11.4,25.4-25.4,25.4
	C486,410.9,474.6,399.5,474.6,385.5z"/>
</svg>
