<?xml version="1.0" encoding="utf-8"?>
<!-- Generator: Adobe Illustrator 27.5.0, SVG Export Plug-In . SVG Version: 6.00 Build 0)  -->
<svg version="1.1" id="Camada_1" xmlns="http://www.w3.org/2000/svg" xmlns:xlink="http://www.w3.org/1999/xlink" x="0px" y="0px"
	 viewBox="0 0 1000 1000" style="enable-background:new 0 0 1000 1000;" xml:space="preserve">
<style type="text/css">
	.st0{fill:none;stroke:#FFFFFF;stroke-width:4;}
	.st1{fill:none;stroke:#FFFFFF;stroke-width:4;stroke-linecap:round;stroke-linejoin:round;}
	.st2{fill:#325F8C;}
	.st3{fill:#F57C00;}
	.st4{fill:#FFFFFF;}
</style>
<g>
	<path class="st0" d="M352,901.3h318"/>
	<path class="st1" d="M662,895.3l8,6l-8,6"/>
	<path class="st2" d="M922.9,125.2V483h-244v341.6H321.1V483h-244V125.2H922.9z"/>
	<path class="st3" d="M44.6,109h65.1c1.1,0,2.1,0.1,3.2,0.3s2.1,0.5,3,0.9c1,0.4,1.9,0.9,2.8,1.5s1.7,1.3,2.5,2
		c0.8,0.8,1.4,1.6,2,2.5s1.1,1.8,1.5,2.8s0.7,2,0.9,3s0.3,2.1,0.3,3.2V483c0,1.1-0.1,2.1-0.3,3.2s-0.5,2.1-0.9,3
		c-0.4,1-0.9,1.9-1.5,2.8s-1.3,1.7-2,2.5c-0.8,0.8-1.6,1.4-2.5,2s-1.8,1.1-2.8,1.5s-2,0.7-3,0.9c-1,0.2-2.1,0.3-3.2,0.3H44.6
		c-1.1,0-2.1-0.1-3.2-0.3c-1.1-0.2-2.1-0.5-3.1-0.9s-1.9-0.9-2.8-1.5c-0.9-0.6-1.7-1.3-2.5-2c-0.8-0.8-1.4-1.6-2-2.5
		s-1.1-1.8-1.5-2.8s-0.7-2-0.9-3c-0.2-1-0.3-2.1-0.3-3.2V125.2c0-1.1,0.1-2.1,0.3-3.2c0.2-1,0.5-2.1,0.9-3c0.4-1,0.9-1.9,1.5-2.8
		s1.3-1.7,2-2.5c0.8-0.8,1.6-1.4,2.5-2s1.8-1.1,2.8-1.5s2-0.7,3.1-0.9C42.5,109.1,43.5,109,44.6,109z"/>
	<path class="st3" d="M955.4,499.3h-65.1c-1.1,0-2.1-0.1-3.2-0.3c-1-0.2-2.1-0.5-3-0.9c-1-0.4-1.9-0.9-2.8-1.5
		c-0.9-0.6-1.7-1.3-2.5-2c-0.8-0.8-1.4-1.6-2-2.5s-1.1-1.8-1.5-2.8s-0.7-2-0.9-3.1c-0.2-1-0.3-2.1-0.3-3.2V125.2
		c0-1.1,0.1-2.1,0.3-3.2c0.2-1,0.5-2.1,0.9-3c0.4-1,0.9-1.9,1.5-2.8s1.3-1.7,2-2.5c0.8-0.8,1.6-1.4,2.5-2s1.8-1.1,2.8-1.5
		s2-0.7,3-0.9s2.1-0.3,3.2-0.3h65.1c1.1,0,2.1,0.1,3.2,0.3c1.1,0.2,2.1,0.5,3.1,0.9s1.9,0.9,2.8,1.5c0.9,0.6,1.7,1.3,2.5,2
		c0.8,0.8,1.4,1.6,2,2.5s1.1,1.8,1.5,2.8s0.7,2,0.9,3c0.2,1.1,0.3,2.1,0.3,3.2V483c0,1.1-0.1,2.1-0.3,3.2c-0.2,1-0.5,2.1-0.9,3.1
		s-0.9,1.9-1.5,2.8s-1.3,1.7-2,2.5c-0.8,0.8-1.6,1.4-2.5,2s-1.8,1.1-2.8,1.5s-2,0.7-3.1,0.9C957.5,499.2,956.5,499.3,955.4,499.3z"
		/>
	<path class="st3" d="M304.8,873.4v-65.1c0-1.1,0.1-2.1,0.3-3.2c0.2-1,0.5-2.1,0.9-3.1s0.9-1.9,1.5-2.8c0.6-0.9,1.3-1.7,2-2.5
		c0.8-0.8,1.6-1.4,2.5-2s1.8-1.1,2.8-1.5s2-0.7,3.1-0.9s2.1-0.3,3.2-0.3h357.8c1.1,0,2.1,0.1,3.2,0.3s2.1,0.5,3.1,0.9
		s1.9,0.9,2.8,1.5c0.9,0.6,1.7,1.3,2.5,2c0.8,0.8,1.4,1.6,2,2.5s1.1,1.8,1.5,2.8s0.7,2,0.9,3.1c0.2,1,0.3,2.1,0.3,3.2v65.1
		c0,1.1-0.1,2.1-0.3,3.2c-0.2,1-0.5,2.1-0.9,3.1s-0.9,1.9-1.5,2.8c-0.6,0.9-1.3,1.7-2,2.5c-0.8,0.8-1.6,1.4-2.5,2s-1.8,1.1-2.8,1.5
		s-2,0.7-3.1,0.9c-1,0.2-2.1,0.3-3.2,0.3H321.1c-1.1,0-2.1-0.1-3.2-0.3c-1-0.2-2.1-0.5-3.1-0.9s-1.9-0.9-2.8-1.5s-1.7-1.3-2.5-2
		c-0.8-0.8-1.4-1.6-2-2.5s-1.1-1.8-1.5-2.8s-0.7-2-0.9-3.1C304.9,875.5,304.8,874.5,304.8,873.4z"/>
	<path class="st4" d="M955.4,92.7h-65.1c-12,0-22.4,6.6-28,16.3h-590c0,10.9,0,21.7,0,32.6h585.5v325.3H678.9
		c-9,0-16.3,7.3-16.3,16.3V776H337.3V483c0-9-7.3-16.3-16.3-16.3H142.2V141.5c43.4,0,86.7,0.1,130.1,0.1c0-10.9,0-21.7,0-32.6
		c-44.9,0-89.7-0.1-134.6-0.1c-5.6-9.7-16-16.3-28-16.3H44.6c-17.9,0-32.5,14.6-32.5,32.5V483c0,17.9,14.6,32.5,32.5,32.5h65.1
		c12,0,22.4-6.6,28-16.3h167.2v281c-9.7,5.6-16.3,16-16.3,28v65.1c0,17.9,14.6,32.5,32.5,32.5h357.8c17.9,0,32.5-14.6,32.5-32.5
		v-65.1c0-12-6.6-22.4-16.3-28v-281h167.2c5.6,9.7,16,16.3,28,16.3h65.1c17.9,0,32.5-14.6,32.5-32.5V125.2
		C988,107.3,973.4,92.7,955.4,92.7z M44.6,483V125.2h65.1V483H44.6z M678.9,873.4H321.1v-65.1h357.8V873.4z M955.4,483h-65.1V125.2
		h65.1V483z"/>
</g>
</svg>
