<?xml version="1.0" encoding="utf-8"?>
<!-- Generator: Adobe Illustrator 27.5.0, SVG Export Plug-In . SVG Version: 6.00 Build 0)  -->
<svg version="1.1" id="Camada_1" xmlns="http://www.w3.org/2000/svg" xmlns:xlink="http://www.w3.org/1999/xlink" x="0px" y="0px"
	 viewBox="0 0 1000 1000" style="enable-background:new 0 0 1000 1000;" xml:space="preserve">
<style type="text/css">
	.st0{fill:none;stroke:#FFFFFF;stroke-width:4;}
	.st1{fill:none;stroke:#FFFFFF;stroke-width:4;stroke-linecap:round;stroke-linejoin:round;}
	.st2{clip-path:url(#SVGID_00000150803100258497764670000003054750396687369919_);}
	.st3{clip-path:url(#SVGID_00000075845047645930996800000015068146913452071353_);}
	.st4{fill:#F57C00;}
	.st5{fill:#325F8C;}
</style>
<path class="st0" d="M340,902h318"/>
<path class="st1" d="M650,896l8,6l-8,6"/>
<g>
	<defs>
		<rect id="SVGID_1_" x="178.7" y="178.7" width="642.7" height="642.7"/>
	</defs>
	<clipPath id="SVGID_00000036216596486712230700000006333144855024466311_">
		<use xlink:href="#SVGID_1_"  style="overflow:visible;"/>
	</clipPath>
	<g style="clip-path:url(#SVGID_00000036216596486712230700000006333144855024466311_);">
		<g>
			<defs>
				<path id="SVGID_00000078748853385374296490000002560519915556980908_" d="M601.2,500c0-6.3-0.6-12.5-1.8-18.7l221.2-204.8
					l-97.2-97.2L518.7,400.5c-12.5-2.4-24.9-2.4-37.4,0L276.5,179.3l-97.2,97.2l221.2,204.8c-2.4,12.5-2.4,24.9,0,37.4L179.3,723.5
					l97.2,97.2l204.8-221.2c12.5,2.4,24.9,2.4,37.4,0l204.8,221.2l97.2-97.2L599.5,518.7C600.7,512.5,601.2,506.3,601.2,500z
					 M500,591.3c-1.5,0-3,0-4.5-0.1c-1.5-0.1-3-0.2-4.5-0.3c-1.5-0.1-3-0.3-4.4-0.6c-1.5-0.2-3-0.5-4.4-0.8c-1.5-0.3-2.9-0.6-4.4-1
					c-1.4-0.4-2.9-0.8-4.3-1.2c-1.4-0.4-2.8-0.9-4.3-1.4c-1.4-0.5-2.8-1-4.2-1.6c-1.4-0.6-2.7-1.2-4.1-1.8c-1.3-0.6-2.7-1.3-4-2
					s-2.6-1.4-3.9-2.2c-1.3-0.8-2.5-1.6-3.8-2.4c-1.2-0.8-2.5-1.7-3.7-2.6c-1.2-0.9-2.4-1.8-3.5-2.8c-1.2-0.9-2.3-1.9-3.4-2.9
					c-1.1-1-2.2-2-3.2-3.1c-1.1-1.1-2.1-2.1-3.1-3.2c-1-1.1-2-2.2-2.9-3.4c-0.9-1.2-1.9-2.3-2.8-3.5c-0.9-1.2-1.8-2.4-2.6-3.7
					c-0.8-1.2-1.6-2.5-2.4-3.8c-0.8-1.3-1.5-2.6-2.2-3.9s-1.4-2.7-2-4c-0.6-1.3-1.2-2.7-1.8-4.1c-0.6-1.4-1.1-2.8-1.6-4.2
					c-0.5-1.4-1-2.8-1.4-4.3c-0.4-1.4-0.8-2.9-1.2-4.3c-0.4-1.5-0.7-2.9-1-4.4c-0.3-1.5-0.5-2.9-0.8-4.4c-0.2-1.5-0.4-3-0.5-4.4
					c-0.1-1.5-0.3-3-0.3-4.5c-0.1-1.5-0.1-3-0.1-4.5c0-1.5,0-3,0.1-4.5c0.1-1.5,0.2-3,0.3-4.5c0.1-1.5,0.3-3,0.5-4.4
					c0.2-1.5,0.5-3,0.8-4.4c0.3-1.5,0.6-2.9,1-4.4c0.4-1.4,0.8-2.9,1.2-4.3c0.4-1.4,0.9-2.8,1.4-4.3c0.5-1.4,1-2.8,1.6-4.2
					c0.6-1.4,1.2-2.7,1.8-4.1c0.6-1.3,1.3-2.7,2-4s1.4-2.6,2.2-3.9c0.8-1.3,1.6-2.5,2.4-3.8c0.8-1.2,1.7-2.5,2.6-3.7
					c0.9-1.2,1.8-2.4,2.8-3.5c0.9-1.2,1.9-2.3,2.9-3.4c1-1.1,2-2.2,3.1-3.2c1.1-1.1,2.1-2.1,3.2-3.1c1.1-1,2.2-2,3.4-2.9
					c1.2-0.9,2.3-1.9,3.5-2.8c1.2-0.9,2.4-1.8,3.7-2.6c1.2-0.8,2.5-1.6,3.8-2.4c1.3-0.8,2.6-1.5,3.9-2.2s2.7-1.4,4-2
					c1.4-0.6,2.7-1.2,4.1-1.8c1.4-0.6,2.8-1.1,4.2-1.6c1.4-0.5,2.8-1,4.3-1.4c1.4-0.4,2.9-0.8,4.3-1.2c1.4-0.4,2.9-0.7,4.4-1
					c1.5-0.3,2.9-0.5,4.4-0.8c1.5-0.2,3-0.4,4.4-0.5c1.5-0.1,3-0.3,4.5-0.3c1.5-0.1,3-0.1,4.5-0.1c1.5,0,3,0,4.5,0.1
					c1.5,0.1,3,0.2,4.5,0.3c1.5,0.1,3,0.3,4.4,0.5c1.5,0.2,3,0.5,4.4,0.8c1.5,0.3,2.9,0.6,4.4,1c1.4,0.4,2.9,0.8,4.3,1.2
					c1.4,0.4,2.8,0.9,4.3,1.4c1.4,0.5,2.8,1,4.2,1.6c1.4,0.6,2.7,1.2,4.1,1.8c1.4,0.6,2.7,1.3,4,2s2.6,1.4,3.9,2.2
					c1.3,0.8,2.5,1.6,3.8,2.4c1.2,0.8,2.5,1.7,3.7,2.6c1.2,0.9,2.4,1.8,3.5,2.8c1.2,0.9,2.3,1.9,3.4,2.9c1.1,1,2.2,2,3.2,3.1
					c1.1,1.1,2.1,2.1,3.1,3.2c1,1.1,2,2.2,2.9,3.4c0.9,1.2,1.9,2.3,2.8,3.5c0.9,1.2,1.8,2.4,2.6,3.7c0.8,1.2,1.6,2.5,2.4,3.8
					c0.8,1.3,1.5,2.6,2.2,3.9s1.4,2.7,2,4c0.6,1.4,1.2,2.7,1.8,4.1c0.6,1.4,1.1,2.8,1.6,4.2c0.5,1.4,1,2.8,1.4,4.3
					c0.4,1.4,0.8,2.9,1.2,4.3c0.4,1.4,0.7,2.9,1,4.4c0.3,1.5,0.5,2.9,0.8,4.4c0.2,1.5,0.4,3,0.6,4.4c0.1,1.5,0.3,3,0.3,4.5
					c0.1,1.5,0.1,3,0.1,4.5c0,1.5,0,3-0.1,4.5c-0.1,1.5-0.2,3-0.3,4.5c-0.1,1.5-0.3,3-0.6,4.4c-0.2,1.5-0.5,3-0.8,4.4
					c-0.3,1.5-0.6,2.9-1,4.4c-0.4,1.4-0.8,2.9-1.2,4.3c-0.4,1.4-0.9,2.8-1.4,4.3c-0.5,1.4-1,2.8-1.6,4.2c-0.6,1.4-1.2,2.7-1.8,4.1
					c-0.6,1.4-1.3,2.7-2,4s-1.4,2.6-2.2,3.9c-0.8,1.3-1.6,2.5-2.4,3.8c-0.8,1.2-1.7,2.5-2.6,3.7c-0.9,1.2-1.8,2.4-2.8,3.5
					c-0.9,1.2-1.9,2.3-2.9,3.4c-1,1.1-2,2.2-3.1,3.2c-1.1,1.1-2.1,2.1-3.2,3.1c-1.1,1-2.2,2-3.4,2.9c-1.2,0.9-2.3,1.9-3.5,2.8
					c-1.2,0.9-2.4,1.8-3.7,2.6c-1.2,0.8-2.5,1.6-3.8,2.4c-1.3,0.8-2.6,1.5-3.9,2.2s-2.7,1.4-4,2c-1.3,0.6-2.7,1.2-4.1,1.8
					c-1.4,0.6-2.8,1.1-4.2,1.6c-1.4,0.5-2.8,1-4.3,1.4c-1.4,0.4-2.9,0.8-4.3,1.2c-1.5,0.4-2.9,0.7-4.4,1c-1.5,0.3-2.9,0.5-4.4,0.8
					c-1.5,0.2-3,0.4-4.4,0.6c-1.5,0.1-3,0.3-4.5,0.3C503,591.3,501.5,591.3,500,591.3z"/>
			</defs>
			<clipPath id="SVGID_00000143599248177985791010000000576859739411436973_">
				<use xlink:href="#SVGID_00000078748853385374296490000002560519915556980908_"  style="overflow:visible;"/>
			</clipPath>
			<g style="clip-path:url(#SVGID_00000143599248177985791010000000576859739411436973_);">
				<path class="st4" d="M179.3,179.3v641.4h641.5V179.3H179.3z"/>
			</g>
		</g>
	</g>
</g>
<path class="st5" d="M500,422.4c-2.5,0-5.1,0.1-7.6,0.4c-2.5,0.2-5,0.6-7.5,1.1c-2.5,0.5-5,1.1-7.4,1.8c-2.4,0.7-4.8,1.6-7.2,2.6
	c-2.3,1-4.6,2.1-6.9,3.3c-2.2,1.2-4.4,2.5-6.5,3.9c-2.1,1.4-4.2,2.9-6.1,4.5c-2,1.6-3.8,3.3-5.6,5.1s-3.5,3.7-5.1,5.6
	c-1.6,2-3.1,4-4.5,6.1c-1.4,2.1-2.7,4.3-3.9,6.5c-1.2,2.2-2.3,4.5-3.3,6.9c-1,2.3-1.8,4.7-2.6,7.2c-0.7,2.4-1.4,4.9-1.8,7.4
	c-0.5,2.5-0.9,5-1.1,7.5c-0.2,2.5-0.4,5.1-0.4,7.6c0,2.5,0.1,5.1,0.4,7.6c0.2,2.5,0.6,5,1.1,7.5c0.5,2.5,1.1,5,1.8,7.4
	c0.7,2.4,1.6,4.8,2.6,7.2c1,2.3,2.1,4.6,3.3,6.9c1.2,2.2,2.5,4.4,3.9,6.5c1.4,2.1,2.9,4.2,4.5,6.1c1.6,2,3.3,3.8,5.1,5.6
	s3.7,3.5,5.6,5.1c2,1.6,4,3.1,6.1,4.5c2.1,1.4,4.3,2.7,6.5,3.9c2.2,1.2,4.5,2.3,6.9,3.3c2.3,1,4.7,1.8,7.2,2.6
	c2.4,0.7,4.9,1.4,7.4,1.8c2.5,0.5,5,0.9,7.5,1.1c2.5,0.2,5.1,0.4,7.6,0.4c2.5,0,5.1-0.1,7.6-0.4c2.5-0.2,5-0.6,7.5-1.1
	c2.5-0.5,5-1.1,7.4-1.8c2.4-0.7,4.8-1.6,7.2-2.6c2.3-1,4.6-2.1,6.9-3.3c2.2-1.2,4.4-2.5,6.5-3.9c2.1-1.4,4.2-2.9,6.1-4.5
	c2-1.6,3.8-3.3,5.6-5.1s3.5-3.7,5.1-5.6c1.6-2,3.1-4,4.5-6.1c1.4-2.1,2.7-4.3,3.9-6.5c1.2-2.2,2.3-4.5,3.3-6.9
	c1-2.3,1.8-4.7,2.6-7.2c0.7-2.4,1.4-4.9,1.8-7.4c0.5-2.5,0.9-5,1.1-7.5c0.2-2.5,0.4-5.1,0.4-7.6c0-2.5-0.1-5.1-0.4-7.6
	c-0.2-2.5-0.6-5-1.1-7.5c-0.5-2.5-1.1-5-1.8-7.4c-0.7-2.4-1.6-4.8-2.6-7.2c-1-2.3-2.1-4.6-3.3-6.9c-1.2-2.2-2.5-4.4-3.9-6.5
	c-1.4-2.1-2.9-4.2-4.5-6.1c-1.6-2-3.3-3.8-5.1-5.6s-3.7-3.5-5.6-5.1c-2-1.6-4-3.1-6.1-4.5c-2.1-1.4-4.3-2.7-6.5-3.9
	c-2.2-1.2-4.5-2.3-6.9-3.3c-2.3-1-4.7-1.8-7.2-2.6c-2.4-0.7-4.9-1.4-7.4-1.8c-2.5-0.5-5-0.9-7.5-1.1
	C505.1,422.6,502.5,422.4,500,422.4z M500,524.1c-0.8,0-1.6,0-2.4-0.1c-0.8-0.1-1.6-0.2-2.3-0.3c-0.8-0.2-1.5-0.3-2.3-0.6
	c-0.8-0.2-1.5-0.5-2.2-0.8s-1.4-0.6-2.1-1c-0.7-0.4-1.4-0.8-2-1.2c-0.7-0.4-1.3-0.9-1.9-1.4c-0.6-0.5-1.2-1-1.8-1.6
	c-0.6-0.6-1.1-1.1-1.6-1.8s-1-1.2-1.4-1.9c-0.4-0.7-0.8-1.3-1.2-2c-0.4-0.7-0.7-1.4-1-2.1c-0.3-0.7-0.6-1.5-0.8-2.2
	c-0.2-0.8-0.4-1.5-0.6-2.3c-0.2-0.8-0.3-1.6-0.3-2.3c-0.1-0.8-0.1-1.6-0.1-2.4c0-0.8,0-1.6,0.1-2.4c0.1-0.8,0.2-1.6,0.3-2.3
	c0.2-0.8,0.3-1.5,0.6-2.3c0.2-0.8,0.5-1.5,0.8-2.2s0.6-1.4,1-2.1c0.4-0.7,0.8-1.4,1.2-2c0.4-0.7,0.9-1.3,1.4-1.9s1-1.2,1.6-1.8
	c0.6-0.6,1.1-1.1,1.8-1.6s1.2-1,1.9-1.4c0.7-0.4,1.3-0.8,2-1.2c0.7-0.4,1.4-0.7,2.1-1s1.5-0.6,2.2-0.8c0.8-0.2,1.5-0.4,2.3-0.6
	c0.8-0.2,1.6-0.3,2.3-0.3c0.8-0.1,1.6-0.1,2.4-0.1c0.8,0,1.6,0,2.4,0.1c0.8,0.1,1.6,0.2,2.3,0.3c0.8,0.2,1.5,0.3,2.3,0.6
	c0.8,0.2,1.5,0.5,2.2,0.8c0.7,0.3,1.4,0.6,2.1,1c0.7,0.4,1.4,0.8,2,1.2c0.7,0.4,1.3,0.9,1.9,1.4s1.2,1,1.8,1.6
	c0.6,0.6,1.1,1.1,1.6,1.8c0.5,0.6,1,1.2,1.4,1.9c0.4,0.7,0.8,1.3,1.2,2c0.4,0.7,0.7,1.4,1,2.1s0.6,1.5,0.8,2.2
	c0.2,0.8,0.4,1.5,0.6,2.3c0.2,0.8,0.3,1.6,0.3,2.3c0.1,0.8,0.1,1.6,0.1,2.4c0,0.8,0,1.6-0.1,2.4c-0.1,0.8-0.2,1.6-0.3,2.3
	c-0.2,0.8-0.3,1.5-0.6,2.3c-0.2,0.8-0.5,1.5-0.8,2.2c-0.3,0.7-0.6,1.4-1,2.1c-0.4,0.7-0.8,1.4-1.2,2s-0.9,1.3-1.4,1.9
	c-0.5,0.6-1,1.2-1.6,1.8c-0.6,0.6-1.1,1.1-1.8,1.6c-0.6,0.5-1.2,1-1.9,1.4s-1.3,0.8-2,1.2c-0.7,0.4-1.4,0.7-2.1,1
	c-0.7,0.3-1.5,0.6-2.2,0.8c-0.8,0.2-1.5,0.4-2.3,0.6c-0.8,0.2-1.6,0.3-2.3,0.3C501.6,524.1,500.8,524.1,500,524.1z"/>
<path class="st5" d="M970.3,500c0.2-3.9,0.1-7.8-0.2-11.7s-0.8-7.8-1.6-11.6c-0.8-3.8-1.8-7.6-3-11.3s-2.7-7.3-4.3-10.9
	c-1.7-3.5-3.5-7-5.6-10.3c-2.1-3.3-4.3-6.5-6.8-9.6c-2.4-3.1-5.1-5.9-7.9-8.7c-2.8-2.7-5.7-5.3-8.8-7.7c-4.1-21.6-9.7-42.8-17-63.6
	c1.5-3.6,2.8-7.3,3.8-11.1s1.9-7.6,2.5-11.4c0.6-3.9,1-7.8,1.1-11.7c0.1-3.9,0-7.8-0.3-11.7c-0.3-3.9-0.9-7.8-1.7-11.6
	c-0.8-3.8-1.8-7.6-3.1-11.3c-1.2-3.7-2.7-7.3-4.4-10.8s-3.6-6.9-5.7-10.2c-1.8-3.5-3.8-6.8-6-10c-2.2-3.2-4.6-6.3-7.2-9.2
	c-2.6-2.9-5.3-5.7-8.2-8.3c-2.9-2.6-6-5-9.2-7.3c-3.2-2.2-6.5-4.3-10-6.1s-7-3.5-10.7-4.9c-3.7-1.4-7.4-2.6-11.2-3.6
	c-3.8-1-7.6-1.7-11.5-2.2c-14.3-16.6-29.8-32.1-46.5-46.4c-0.5-3.9-1.2-7.7-2.2-11.5c-1-3.8-2.2-7.5-3.6-11.2
	c-1.4-3.7-3-7.2-4.9-10.7s-3.9-6.8-6.1-10c-2.2-3.2-4.7-6.3-7.3-9.2c-2.6-2.9-5.4-5.7-8.3-8.2c-2.9-2.6-6-5-9.3-7.2
	c-3.2-2.2-6.6-4.2-10.1-6c-3.3-2.1-6.7-4-10.2-5.7c-3.5-1.7-7.1-3.2-10.8-4.4c-3.7-1.3-7.5-2.3-11.3-3.1c-3.8-0.8-7.7-1.4-11.6-1.7
	c-3.9-0.3-7.8-0.4-11.7-0.3c-3.9,0.1-7.8,0.5-11.7,1.1c-3.9,0.6-7.7,1.4-11.4,2.5c-3.8,1.1-7.5,2.3-11.1,3.8
	c-20.8-7.3-42-12.9-63.6-17c-2.4-3.1-4.9-6.1-7.7-8.8c-2.7-2.8-5.6-5.4-8.7-7.9s-6.2-4.7-9.6-6.8c-3.3-2.1-6.8-3.9-10.3-5.6
	c-3.5-1.7-7.2-3.1-10.9-4.3c-3.7-1.2-7.5-2.2-11.3-3c-3.8-0.8-7.7-1.3-11.6-1.6c-3.9-0.3-7.8-0.4-11.7-0.2
	c-3.9-0.2-7.8-0.1-11.7,0.2s-7.8,0.8-11.6,1.6c-3.8,0.8-7.6,1.8-11.3,3s-7.3,2.7-10.9,4.3c-3.5,1.7-7,3.5-10.3,5.6
	c-3.3,2.1-6.5,4.3-9.6,6.8c-3.1,2.4-5.9,5.1-8.7,7.9c-2.7,2.8-5.3,5.7-7.7,8.8c-21.6,4.1-42.8,9.7-63.6,17
	c-3.6-1.5-7.3-2.8-11.1-3.8c-3.8-1.1-7.6-1.9-11.4-2.5c-3.9-0.6-7.8-1-11.7-1.1c-3.9-0.1-7.8,0-11.7,0.3c-3.9,0.3-7.8,0.9-11.6,1.7
	c-3.8,0.8-7.6,1.8-11.3,3.1c-3.7,1.2-7.3,2.7-10.8,4.4s-6.9,3.6-10.2,5.7c-3.5,1.8-6.8,3.8-10,6c-3.2,2.2-6.3,4.6-9.3,7.2
	c-2.9,2.6-5.7,5.3-8.3,8.2c-2.6,2.9-5,6-7.3,9.2c-2.2,3.2-4.3,6.5-6.1,10s-3.5,7-4.9,10.7c-1.4,3.6-2.6,7.4-3.6,11.2
	c-1,3.8-1.7,7.6-2.2,11.5c-16.6,14.3-32.1,29.8-46.4,46.5c-3.9,0.5-7.7,1.2-11.5,2.2c-3.8,1-7.5,2.2-11.2,3.6
	c-3.7,1.4-7.2,3-10.7,4.9s-6.8,3.9-10,6.1c-3.2,2.2-6.3,4.7-9.2,7.3c-2.9,2.6-5.7,5.4-8.3,8.3c-2.6,2.9-5,6-7.2,9.2
	c-2.2,3.2-4.2,6.6-6,10c-2.1,3.3-4,6.7-5.7,10.2s-3.2,7.1-4.4,10.8c-1.3,3.7-2.3,7.5-3.1,11.3c-0.8,3.8-1.4,7.7-1.7,11.6
	c-0.3,3.9-0.4,7.8-0.3,11.7c0.1,3.9,0.5,7.8,1.1,11.7c0.6,3.9,1.4,7.7,2.5,11.4c1,3.8,2.3,7.5,3.8,11.1c-7.3,20.8-12.9,42-17,63.6
	c-3.1,2.4-6.1,4.9-8.8,7.7c-2.8,2.7-5.4,5.6-7.9,8.7s-4.7,6.2-6.8,9.6c-2.1,3.3-3.9,6.8-5.6,10.3c-1.7,3.5-3.1,7.2-4.3,10.9
	c-1.2,3.7-2.2,7.5-3,11.3c-0.8,3.8-1.3,7.7-1.6,11.6c-0.3,3.9-0.4,7.8-0.2,11.7c-0.2,3.9-0.1,7.8,0.2,11.7c0.3,3.9,0.8,7.8,1.6,11.6
	c0.8,3.8,1.8,7.6,3,11.3s2.7,7.3,4.3,10.9c1.7,3.5,3.5,7,5.6,10.3c2.1,3.3,4.3,6.5,6.8,9.6c2.4,3.1,5.1,5.9,7.9,8.7
	c2.8,2.7,5.7,5.3,8.8,7.7c4.1,21.6,9.7,42.8,17,63.6c-1.5,3.6-2.8,7.3-3.8,11.1c-1.1,3.8-1.9,7.6-2.5,11.4c-0.6,3.9-1,7.7-1.1,11.7
	c-0.1,3.9,0,7.8,0.3,11.7c0.3,3.9,0.9,7.8,1.7,11.6c0.8,3.8,1.8,7.6,3.1,11.3s2.7,7.3,4.4,10.8s3.6,6.9,5.7,10.2
	c1.8,3.5,3.8,6.8,6,10.1c2.2,3.2,4.6,6.3,7.2,9.2c2.6,2.9,5.3,5.7,8.3,8.3c2.9,2.6,6,5,9.2,7.3c3.2,2.2,6.5,4.3,10,6.1
	s7,3.5,10.7,4.9c3.7,1.4,7.4,2.6,11.2,3.6c3.8,1,7.6,1.7,11.5,2.2c14.3,16.6,29.8,32.1,46.4,46.4c0.5,3.9,1.2,7.7,2.2,11.5
	c1,3.8,2.2,7.5,3.6,11.2c1.4,3.6,3,7.2,4.9,10.7s3.9,6.8,6.1,10c2.2,3.2,4.7,6.3,7.3,9.2c2.6,2.9,5.4,5.7,8.3,8.2
	c2.9,2.6,6,5,9.2,7.2c3.2,2.2,6.6,4.2,10,6c3.3,2.1,6.7,4,10.2,5.7s7.1,3.2,10.8,4.4c3.7,1.3,7.5,2.3,11.3,3.1
	c3.8,0.8,7.7,1.4,11.6,1.7c3.9,0.3,7.8,0.4,11.7,0.3c3.9-0.1,7.8-0.5,11.7-1.1c3.9-0.6,7.7-1.4,11.4-2.5c3.8-1.1,7.5-2.3,11.1-3.8
	c20.8,7.3,42,12.9,63.6,17c2.4,3.1,4.9,6.1,7.7,8.8c2.7,2.8,5.6,5.4,8.7,7.9c3.1,2.4,6.2,4.7,9.6,6.8c3.3,2.1,6.8,3.9,10.3,5.6
	c3.5,1.7,7.2,3.1,10.9,4.3s7.5,2.2,11.3,3c3.8,0.8,7.7,1.3,11.6,1.6c3.9,0.3,7.8,0.4,11.7,0.2c3.9,0.2,7.8,0.1,11.7-0.2
	c3.9-0.3,7.8-0.8,11.6-1.6c3.8-0.8,7.6-1.8,11.3-3s7.3-2.7,10.9-4.3c3.5-1.7,7-3.5,10.3-5.6c3.3-2.1,6.5-4.3,9.6-6.8
	c3.1-2.4,5.9-5.1,8.7-7.9c2.7-2.8,5.3-5.7,7.7-8.8c21.6-4.1,42.8-9.7,63.6-17c3.6,1.5,7.3,2.8,11.1,3.8s7.6,1.9,11.4,2.5
	c3.9,0.6,7.8,1,11.7,1.1c3.9,0.1,7.8,0,11.7-0.3c3.9-0.3,7.8-0.9,11.6-1.7c3.8-0.8,7.6-1.8,11.3-3.1c3.7-1.2,7.3-2.7,10.8-4.4
	c3.5-1.7,6.9-3.6,10.2-5.7c3.5-1.8,6.8-3.8,10.1-6c3.2-2.2,6.3-4.6,9.2-7.2c2.9-2.6,5.7-5.3,8.3-8.2c2.6-2.9,5-6,7.3-9.2
	c2.2-3.2,4.3-6.5,6.1-10s3.5-7,4.9-10.7c1.4-3.7,2.6-7.4,3.6-11.2c1-3.8,1.7-7.6,2.2-11.5c16.6-14.3,32.1-29.8,46.4-46.5
	c3.9-0.5,7.7-1.2,11.5-2.2c3.8-1,7.5-2.2,11.2-3.6c3.6-1.4,7.2-3,10.7-4.9s6.8-3.9,10-6.1c3.2-2.2,6.3-4.7,9.2-7.3
	c2.9-2.6,5.7-5.4,8.2-8.3c2.6-2.9,5-6,7.2-9.2c2.2-3.2,4.2-6.6,6-10.1c2.1-3.3,4-6.7,5.7-10.2c1.7-3.5,3.2-7.1,4.4-10.8
	c1.3-3.7,2.3-7.5,3.1-11.3c0.8-3.8,1.4-7.7,1.7-11.6c0.3-3.9,0.4-7.8,0.3-11.7s-0.5-7.8-1.1-11.7c-0.6-3.9-1.4-7.7-2.5-11.4
	c-1.1-3.8-2.3-7.5-3.8-11.1c7.3-20.8,12.9-42,17-63.6c3.1-2.4,6.1-4.9,8.8-7.7c2.8-2.7,5.4-5.6,7.9-8.7c2.4-3.1,4.7-6.2,6.8-9.6
	c2.1-3.3,3.9-6.8,5.6-10.3c1.7-3.5,3.1-7.2,4.3-10.9c1.2-3.7,2.2-7.5,3-11.3c0.8-3.8,1.3-7.7,1.6-11.6
	C970.4,507.8,970.5,503.9,970.3,500z M787,665.7c-3.9,6.8-7.2,13.8-9.7,21.2c-2.5,7.4-4.2,15-5.1,22.8c-18.2,23.5-39,44.3-62.5,62.5
	c-3.9,0.5-7.7,1.2-11.5,2c-3.8,0.9-7.6,1.9-11.3,3.2c-3.7,1.2-7.3,2.7-10.9,4.3c-3.6,1.6-7,3.4-10.4,5.3c-3.4,2-6.7,4.1-9.8,6.4
	c-3.2,2.3-6.2,4.7-9.1,7.3c-2.9,2.6-5.7,5.3-8.4,8.2c-2.7,2.9-5.2,5.8-7.5,9c-27.4,11.3-55.8,18.9-85.2,22.8c-3.6-1.5-7.3-2.8-11-4
	c-3.7-1.2-7.5-2.1-11.3-2.9c-3.8-0.8-7.7-1.4-11.6-1.7c-3.9-0.4-7.8-0.6-11.7-0.6c-3.9,0-7.8,0.2-11.7,0.6c-3.9,0.4-7.7,1-11.6,1.7
	c-3.8,0.8-7.6,1.7-11.3,2.9c-3.7,1.1-7.4,2.5-11,4c-29.4-3.9-57.8-11.5-85.2-22.8c-2.4-3.1-4.9-6.1-7.5-9c-2.7-2.9-5.4-5.6-8.4-8.2
	c-2.9-2.6-6-5-9.1-7.3c-3.2-2.3-6.4-4.4-9.8-6.4c-3.4-2-6.8-3.7-10.4-5.3c-3.6-1.6-7.2-3-10.9-4.3c-3.7-1.2-7.4-2.3-11.3-3.2
	c-3.8-0.9-7.6-1.5-11.5-2c-23.5-18.2-44.3-39-62.5-62.5c-0.5-3.9-1.2-7.7-2-11.5c-0.9-3.8-1.9-7.6-3.2-11.3
	c-1.2-3.7-2.7-7.3-4.3-10.9c-1.6-3.6-3.4-7-5.3-10.4c-2-3.4-4.1-6.7-6.3-9.8c-2.3-3.2-4.7-6.2-7.3-9.1c-2.6-2.9-5.3-5.7-8.2-8.4
	c-2.9-2.7-5.8-5.2-9-7.5c-11.3-27.4-18.9-55.8-22.8-85.2c1.5-3.6,2.8-7.3,4-11c1.2-3.7,2.1-7.5,2.9-11.3c0.8-3.8,1.4-7.7,1.7-11.6
	c0.4-3.9,0.6-7.8,0.6-11.7c0-3.9-0.2-7.8-0.6-11.7c-0.4-3.9-1-7.7-1.7-11.6c-0.8-3.8-1.7-7.6-2.9-11.3c-1.1-3.7-2.5-7.4-4-11
	c3.9-29.4,11.5-57.8,22.8-85.2c3.1-2.4,6.1-4.9,9-7.5c2.9-2.7,5.6-5.4,8.2-8.4c2.6-2.9,5-6,7.3-9.1c2.3-3.2,4.4-6.4,6.3-9.8
	c2-3.4,3.7-6.8,5.3-10.4c1.6-3.6,3-7.2,4.3-10.9c1.2-3.7,2.3-7.4,3.2-11.3c0.9-3.8,1.5-7.6,2-11.5c18.2-23.5,39-44.4,62.5-62.5
	c3.9-0.5,7.7-1.2,11.5-2c3.8-0.9,7.6-1.9,11.3-3.2c3.7-1.2,7.3-2.7,10.9-4.3c3.6-1.6,7-3.4,10.4-5.3c3.4-2,6.7-4.1,9.8-6.3
	c3.2-2.3,6.2-4.7,9.1-7.3c2.9-2.6,5.7-5.3,8.4-8.2c2.7-2.9,5.2-5.8,7.5-9c27.4-11.3,55.8-18.9,85.2-22.8c3.6,1.5,7.3,2.8,11,4
	c3.7,1.2,7.5,2.1,11.3,2.9c3.8,0.8,7.7,1.4,11.6,1.7c3.9,0.4,7.8,0.6,11.7,0.6c3.9,0,7.8-0.2,11.7-0.6c3.9-0.4,7.7-1,11.6-1.7
	c3.8-0.8,7.6-1.7,11.3-2.9c3.7-1.1,7.4-2.5,11-4c29.4,3.9,57.8,11.5,85.2,22.8c2.4,3.1,4.9,6.1,7.5,9c2.7,2.9,5.4,5.6,8.4,8.2
	c2.9,2.6,6,5,9.1,7.3c3.2,2.3,6.4,4.4,9.8,6.3c3.4,2,6.8,3.7,10.4,5.3c3.6,1.6,7.2,3,10.9,4.3c3.7,1.2,7.4,2.3,11.3,3.2
	c3.8,0.9,7.6,1.5,11.5,2c23.5,18.2,44.3,39,62.5,62.5c0.5,3.9,1.2,7.7,2,11.5c0.9,3.8,1.9,7.6,3.2,11.3c1.2,3.7,2.7,7.3,4.3,10.9
	c1.6,3.6,3.4,7,5.3,10.4c2,3.4,4.1,6.7,6.4,9.8c2.3,3.2,4.7,6.2,7.3,9.1c2.6,2.9,5.3,5.7,8.2,8.4c2.9,2.7,5.8,5.2,9,7.5
	c11.3,27.4,18.9,55.8,22.8,85.2c-1.5,3.6-2.8,7.3-4,11c-1.2,3.7-2.1,7.5-2.9,11.3c-0.8,3.8-1.4,7.7-1.7,11.6
	c-0.4,3.9-0.6,7.8-0.6,11.7c0,3.9,0.2,7.8,0.6,11.7c0.4,3.9,1,7.7,1.7,11.6c0.8,3.8,1.7,7.6,2.9,11.3c1.1,3.7,2.5,7.4,4,11
	c-3.9,29.4-11.5,57.8-22.8,85.2c-6.3,4.7-12,10-17.2,15.9C795.4,652.5,790.9,658.9,787,665.7z"/>
</svg>
