<?xml version="1.0" encoding="utf-8"?>
<!-- Generator: Adobe Illustrator 27.5.0, SVG Export Plug-In . SVG Version: 6.00 Build 0)  -->
<svg version="1.1" id="Camada_1" xmlns="http://www.w3.org/2000/svg" xmlns:xlink="http://www.w3.org/1999/xlink" x="0px" y="0px"
	 viewBox="0 0 1000 1000" style="enable-background:new 0 0 1000 1000;" xml:space="preserve">
<style type="text/css">
	.st0{clip-path:url(#SVGID_00000093861162265453327180000015801201645798856860_);}
	.st1{fill:#325F8C;}
	.st2{fill:#F57C00;}
</style>
<g>
	<g>
		<g>
			<defs>
				<rect id="SVGID_1_" x="24.2" y="24.2" width="952" height="952"/>
			</defs>
			<clipPath id="SVGID_00000054948828723249759410000011426283332564499901_">
				<use xlink:href="#SVGID_1_"  style="overflow:visible;"/>
			</clipPath>
			<g style="clip-path:url(#SVGID_00000054948828723249759410000011426283332564499901_);">
				<path class="st1" d="M500.2,24.2c-7.8,0-15.6,0.2-23.4,0.6s-15.5,1-23.3,1.7c-7.8,0.8-15.5,1.7-23.2,2.9c-7.7,1.1-15.4,2.5-23,4
					s-15.2,3.2-22.8,5.1c-7.6,1.9-15.1,4-22.5,6.2c-7.5,2.3-14.8,4.7-22.2,7.3c-7.3,2.6-14.6,5.4-21.8,8.4c-7.2,3-14.3,6.1-21.4,9.5
					c-7,3.3-14,6.8-20.9,10.5s-13.6,7.5-20.3,11.5s-13.3,8.2-19.7,12.5c-6.5,4.3-12.8,8.8-19.1,13.5c-6.3,4.6-12.4,9.4-18.4,14.4
					c-6,4.9-11.9,10-17.7,15.3c-5.8,5.2-11.4,10.6-16.9,16.1s-10.9,11.2-16.1,16.9c-5.2,5.8-10.3,11.7-15.3,17.7
					c-4.9,6-9.7,12.2-14.4,18.4c-4.6,6.3-9.1,12.6-13.5,19.1c-4.3,6.5-8.5,13.1-12.5,19.7c-4,6.7-7.8,13.5-11.5,20.3
					c-3.7,6.9-7.2,13.8-10.5,20.9c-3.3,7-6.5,14.2-9.5,21.4c-3,7.2-5.8,14.5-8.4,21.8c-2.6,7.3-5.1,14.7-7.3,22.2
					c-2.3,7.5-4.3,15-6.2,22.5c-1.9,7.6-3.6,15.2-5.1,22.8c-1.5,7.6-2.8,15.3-4,23c-1.1,7.7-2.1,15.4-2.9,23.2
					c-0.8,7.8-1.3,15.5-1.7,23.3c-0.4,7.8-0.6,15.6-0.6,23.4s0.2,15.6,0.6,23.4s1,15.6,1.7,23.3c0.8,7.8,1.7,15.5,2.9,23.2
					c1.1,7.7,2.5,15.4,4,23s3.2,15.2,5.1,22.8c1.9,7.6,4,15.1,6.2,22.5c2.3,7.5,4.7,14.8,7.3,22.2c2.6,7.3,5.4,14.6,8.4,21.8
					s6.1,14.3,9.5,21.4c3.3,7,6.8,14,10.5,20.9s7.5,13.6,11.5,20.3s8.2,13.3,12.5,19.7c4.3,6.5,8.8,12.8,13.5,19.1
					c4.6,6.3,9.4,12.4,14.4,18.4c4.9,6,10,11.9,15.3,17.7c5.2,5.8,10.6,11.4,16.1,16.9s11.2,10.9,16.9,16.1
					c5.8,5.2,11.7,10.3,17.7,15.3c6,4.9,12.2,9.7,18.4,14.4c6.3,4.6,12.6,9.1,19.1,13.5c6.5,4.3,13.1,8.5,19.7,12.5
					c6.7,4,13.5,7.8,20.3,11.5c6.9,3.7,13.8,7.2,20.9,10.5c7,3.3,14.2,6.5,21.4,9.5c7.2,3,14.5,5.8,21.8,8.4
					c7.3,2.6,14.7,5.1,22.2,7.3c7.5,2.3,15,4.3,22.5,6.2c7.6,1.9,15.2,3.6,22.8,5.1c7.6,1.5,15.3,2.8,23,4
					c7.7,1.1,15.4,2.1,23.2,2.9c7.8,0.8,15.5,1.3,23.3,1.7s15.6,0.6,23.4,0.6s15.6-0.2,23.4-0.6c7.8-0.4,15.6-1,23.3-1.7
					c7.8-0.8,15.5-1.7,23.2-2.9c7.7-1.1,15.4-2.5,23-4s15.2-3.2,22.8-5.1c7.6-1.9,15.1-4,22.5-6.2c7.5-2.3,14.8-4.7,22.2-7.3
					s14.6-5.4,21.8-8.4s14.3-6.1,21.4-9.5c7-3.3,14-6.8,20.9-10.5s13.6-7.5,20.3-11.5s13.3-8.2,19.7-12.5
					c6.5-4.3,12.8-8.8,19.1-13.5c6.3-4.6,12.4-9.4,18.4-14.4c6-4.9,11.9-10,17.7-15.3c5.8-5.2,11.4-10.6,16.9-16.1
					s10.9-11.2,16.1-16.9c5.2-5.8,10.3-11.7,15.3-17.7c4.9-6,9.7-12.2,14.4-18.4c4.6-6.3,9.1-12.6,13.5-19.1
					c4.3-6.5,8.5-13.1,12.5-19.7c4-6.7,7.8-13.5,11.5-20.3c3.7-6.9,7.2-13.8,10.5-20.9c3.3-7,6.5-14.2,9.5-21.4s5.8-14.5,8.4-21.8
					s5.1-14.7,7.3-22.2c2.3-7.5,4.3-15,6.2-22.5c1.9-7.6,3.6-15.2,5.1-22.8s2.8-15.3,4-23c1.1-7.7,2.1-15.4,2.9-23.2
					c0.8-7.8,1.3-15.5,1.7-23.3s0.6-15.6,0.6-23.4s-0.2-15.6-0.6-23.4c-0.4-7.8-1-15.5-1.7-23.3c-0.8-7.8-1.7-15.5-2.9-23.2
					c-1.1-7.7-2.5-15.4-4-23s-3.2-15.2-5.1-22.8c-1.9-7.6-4-15.1-6.2-22.5c-2.3-7.5-4.7-14.8-7.3-22.2c-2.6-7.3-5.4-14.6-8.4-21.8
					c-3-7.2-6.1-14.3-9.5-21.4c-3.3-7-6.8-14-10.5-20.9s-7.5-13.6-11.5-20.3s-8.2-13.3-12.5-19.7c-4.3-6.5-8.8-12.8-13.5-19.1
					c-4.6-6.3-9.4-12.4-14.4-18.4c-4.9-6-10-11.9-15.3-17.7c-5.2-5.8-10.6-11.4-16.1-16.9s-11.2-10.9-16.9-16.1
					c-5.8-5.2-11.7-10.3-17.7-15.3c-6-4.9-12.2-9.7-18.4-14.4c-6.3-4.6-12.6-9.1-19.1-13.5c-6.5-4.3-13.1-8.5-19.7-12.5
					c-6.7-4-13.5-7.8-20.3-11.5c-6.9-3.7-13.8-7.2-20.9-10.5c-7-3.3-14.2-6.5-21.4-9.5s-14.5-5.8-21.8-8.4
					c-7.3-2.6-14.7-5.1-22.2-7.3c-7.5-2.3-15-4.3-22.5-6.2c-7.6-1.9-15.2-3.6-22.8-5.1s-15.3-2.8-23-4c-7.7-1.1-15.4-2.1-23.2-2.9
					s-15.5-1.3-23.3-1.7C515.8,24.4,508,24.2,500.2,24.2z M690.6,214.6l31.7-31.7h63.5l31.7,31.7v63.5l-31.7,31.7h-63.5l-31.7-31.7
					V214.6z M436.8,103.6l31.7-31.7H532l31.7,31.7V167L532,198.8h-63.5L436.8,167V103.6z M182.9,214.6l31.7-31.7h63.5l31.7,31.7
					v63.5l-31.7,31.7h-63.5l-31.7-31.7L182.9,214.6L182.9,214.6z M103.6,563.7L71.8,532v-63.5l31.7-31.7H167l31.7,31.7V532
					L167,563.7H103.6z M309.8,785.8l-31.7,31.7h-63.5l-31.7-31.7v-63.5l31.7-31.7h63.5l31.7,31.7V785.8z M563.7,896.9L532,928.6
					h-63.5l-31.7-31.7v-63.5l31.7-31.7H532l31.7,31.7V896.9z M500.2,738.2c-3.9,0-7.8-0.1-11.7-0.3c-3.9-0.2-7.8-0.5-11.7-0.9
					c-3.9-0.4-7.7-0.9-11.6-1.4c-3.9-0.6-7.7-1.2-11.5-2s-7.6-1.6-11.4-2.6c-3.8-0.9-7.5-2-11.3-3.1c-3.7-1.1-7.4-2.3-11.1-3.7
					c-3.7-1.3-7.3-2.7-10.9-4.2s-7.2-3.1-10.7-4.7c-3.5-1.7-7-3.4-10.4-5.3c-3.4-1.8-6.8-3.8-10.2-5.8c-3.3-2-6.6-4.1-9.9-6.2
					c-3.2-2.2-6.4-4.4-9.6-6.7c-3.1-2.3-6.2-4.7-9.2-7.2s-6-5-8.8-7.6c-2.9-2.6-5.7-5.3-8.5-8.1s-5.4-5.6-8.1-8.5
					c-2.6-2.9-5.2-5.8-7.6-8.8c-2.5-3-4.9-6.1-7.2-9.2c-2.3-3.1-4.6-6.3-6.7-9.6c-2.2-3.2-4.2-6.5-6.2-9.9c-2-3.3-3.9-6.7-5.8-10.2
					c-1.8-3.4-3.6-6.9-5.3-10.4c-1.7-3.5-3.2-7.1-4.7-10.7c-1.5-3.6-2.9-7.2-4.2-10.9c-1.3-3.7-2.5-7.4-3.7-11.1
					c-1.1-3.7-2.2-7.5-3.1-11.3s-1.8-7.6-2.6-11.4c-0.8-3.8-1.4-7.7-2-11.5c-0.6-3.9-1.1-7.7-1.4-11.6c-0.4-3.9-0.7-7.8-0.9-11.7
					c-0.2-3.9-0.3-7.8-0.3-11.7c0-3.9,0.1-7.8,0.3-11.7c0.2-3.9,0.5-7.8,0.9-11.7c0.4-3.9,0.9-7.7,1.4-11.6c0.6-3.9,1.2-7.7,2-11.5
					s1.6-7.6,2.6-11.4c0.9-3.8,2-7.5,3.1-11.3c1.1-3.7,2.3-7.4,3.7-11.1c1.3-3.7,2.7-7.3,4.2-10.9s3.1-7.2,4.7-10.7
					c1.7-3.5,3.4-7,5.3-10.4c1.8-3.4,3.8-6.8,5.8-10.2c2-3.3,4.1-6.6,6.2-9.9c2.2-3.2,4.4-6.4,6.7-9.6c2.3-3.1,4.7-6.2,7.2-9.2
					s5-6,7.6-8.8c2.6-2.9,5.3-5.7,8.1-8.5c2.8-2.8,5.6-5.4,8.5-8.1c2.9-2.6,5.8-5.2,8.8-7.6c3-2.5,6.1-4.9,9.2-7.2
					c3.1-2.3,6.3-4.6,9.6-6.7c3.2-2.2,6.5-4.2,9.9-6.2c3.3-2,6.7-3.9,10.2-5.8c3.4-1.8,6.9-3.6,10.4-5.3c3.5-1.7,7.1-3.2,10.7-4.7
					s7.2-2.9,10.9-4.2c3.7-1.3,7.4-2.5,11.1-3.7c3.7-1.1,7.5-2.2,11.3-3.1s7.6-1.8,11.4-2.6c3.8-0.8,7.7-1.4,11.5-2
					c3.9-0.6,7.7-1.1,11.6-1.4c3.9-0.4,7.8-0.7,11.7-0.9c3.9-0.2,7.8-0.3,11.7-0.3c3.9,0,7.8,0.1,11.7,0.3c3.9,0.2,7.8,0.5,11.7,0.9
					s7.7,0.9,11.6,1.4c3.9,0.6,7.7,1.2,11.5,2s7.6,1.6,11.4,2.6c3.8,0.9,7.5,2,11.3,3.1c3.7,1.1,7.4,2.3,11.1,3.7
					c3.7,1.3,7.3,2.7,10.9,4.2c3.6,1.5,7.2,3.1,10.7,4.7c3.5,1.7,7,3.4,10.4,5.3c3.4,1.8,6.8,3.8,10.2,5.8c3.3,2,6.6,4.1,9.9,6.2
					c3.2,2.2,6.4,4.4,9.6,6.7c3.1,2.3,6.2,4.7,9.2,7.2s6,5,8.8,7.6c2.9,2.6,5.7,5.3,8.5,8.1c2.8,2.8,5.4,5.6,8.1,8.5
					c2.6,2.9,5.2,5.8,7.6,8.8c2.5,3,4.9,6.1,7.2,9.2s4.6,6.3,6.7,9.6c2.2,3.2,4.2,6.5,6.2,9.9c2,3.3,3.9,6.7,5.8,10.2
					c1.8,3.4,3.6,6.9,5.3,10.4s3.2,7.1,4.7,10.7s2.9,7.2,4.2,10.9c1.3,3.7,2.5,7.4,3.7,11.1c1.1,3.7,2.2,7.5,3.1,11.3
					c0.9,3.8,1.8,7.6,2.6,11.4s1.4,7.7,2,11.5c0.6,3.9,1.1,7.7,1.4,11.6c0.4,3.9,0.7,7.8,0.9,11.7c0.2,3.9,0.3,7.8,0.3,11.7
					c0,3.9-0.1,7.8-0.3,11.7s-0.5,7.8-0.9,11.7s-0.9,7.7-1.4,11.6c-0.6,3.9-1.2,7.7-2,11.5s-1.6,7.6-2.6,11.4
					c-0.9,3.8-2,7.5-3.1,11.3c-1.1,3.7-2.3,7.4-3.7,11.1c-1.3,3.7-2.7,7.3-4.2,10.9c-1.5,3.6-3.1,7.2-4.7,10.7
					c-1.7,3.5-3.4,7-5.3,10.4c-1.8,3.4-3.8,6.8-5.8,10.2c-2,3.3-4.1,6.6-6.2,9.9c-2.2,3.2-4.4,6.4-6.7,9.6c-2.3,3.1-4.7,6.2-7.2,9.2
					s-5,6-7.6,8.8c-2.6,2.9-5.3,5.7-8.1,8.5s-5.6,5.4-8.5,8.1c-2.9,2.6-5.8,5.2-8.8,7.6c-3,2.5-6.1,4.9-9.2,7.2
					c-3.1,2.3-6.3,4.6-9.6,6.7c-3.2,2.2-6.5,4.2-9.9,6.2c-3.3,2-6.7,3.9-10.2,5.8c-3.4,1.8-6.9,3.6-10.4,5.3s-7.1,3.2-10.7,4.7
					c-3.6,1.5-7.2,2.9-10.9,4.2s-7.4,2.5-11.1,3.7c-3.7,1.1-7.5,2.2-11.3,3.1c-3.8,0.9-7.6,1.8-11.4,2.6c-3.8,0.8-7.7,1.4-11.5,2
					c-3.9,0.6-7.7,1.1-11.6,1.4c-3.9,0.4-7.8,0.7-11.7,0.9C508,738.1,504.1,738.2,500.2,738.2z M817.6,785.8l-31.7,31.7h-63.5
					l-31.7-31.7v-63.5l31.7-31.7h63.5l31.7,31.7V785.8z M896.9,563.7h-63.5L801.7,532v-63.5l31.7-31.7h63.5l31.7,31.7V532
					L896.9,563.7z"/>
			</g>
		</g>
	</g>
	<polygon class="st2" points="785.9,691.1 722.4,691.1 690.7,722.8 690.7,786.3 722.4,818 785.9,818 817.6,786.3 817.6,722.8 	"/>
	<polygon class="st2" points="532,71.8 468.5,71.8 436.8,103.6 436.8,167 468.5,198.8 532,198.8 563.7,167 563.7,103.6 	"/>
	<polygon class="st2" points="785.6,182.5 722.1,182.5 690.4,214.2 690.4,277.7 722.1,309.4 785.6,309.4 817.3,277.7 817.3,214.2 	
		"/>
	<polygon class="st2" points="897.2,436.8 833.7,436.8 802,468.5 802,532 833.7,563.7 897.2,563.7 928.9,532 928.9,468.5 	"/>
	<polygon class="st2" points="278.6,182.5 215.1,182.5 183.4,214.2 183.4,277.7 215.1,309.4 278.6,309.4 310.3,277.7 310.3,214.2 	
		"/>
	<polygon class="st2" points="166.7,436.8 103.2,436.8 71.5,468.5 71.5,532 103.2,563.7 166.7,563.7 198.4,532 198.4,468.5 	"/>
	<polygon class="st2" points="532,801.9 468.5,801.9 436.8,833.7 436.8,897.1 468.5,928.9 532,928.9 563.7,897.1 563.7,833.7 	"/>
	<polygon class="st2" points="278.6,691.1 215.1,691.1 183.4,722.8 183.4,786.3 215.1,818 278.6,818 310.3,786.3 310.3,722.8 	"/>
</g>
</svg>
