<?xml version="1.0" encoding="utf-8"?>
<!-- Generator: Adobe Illustrator 27.5.0, SVG Export Plug-In . SVG Version: 6.00 Build 0)  -->
<svg version="1.1" id="Camada_1" xmlns="http://www.w3.org/2000/svg" xmlns:xlink="http://www.w3.org/1999/xlink" x="0px" y="0px"
	 viewBox="0 0 1000 1000" style="enable-background:new 0 0 1000 1000;" xml:space="preserve">
<style type="text/css">
	.st0{fill:#F57C00;}
	.st1{fill:#325F8C;stroke:#FFFFFF;stroke-width:3.9517;stroke-linecap:round;stroke-linejoin:round;}
	.st2{fill:#325F8C;}
	.st3{clip-path:url(#SVGID_00000062180512996474580360000017335767729305088410_);}
</style>
<path class="st0" d="M499.9,611.9c-68.1,0-123.5-55.4-123.5-123.5c0-68.1,55.4-123.5,123.5-123.5s123.5,55.4,123.5,123.5
	C623.4,556.5,568,611.9,499.9,611.9z"/>
<g>
	<path class="st1" d="M648.2,891.7l7.9,5.9l-7.9,5.9"/>
	<g>
		<defs>
			<rect id="SVGID_1_" x="185.3" y="347.7" width="65.7" height="280.6"/>
		</defs>
		<use xlink:href="#SVGID_1_"  style="overflow:visible;fill:#F57C00;"/>
		<clipPath id="SVGID_00000067232785441411114990000001403546104571155348_">
			<use xlink:href="#SVGID_1_"  style="overflow:visible;"/>
		</clipPath>
	</g>
	<path class="st2" d="M567.6,49.7c-21.3-7.2-44-11.1-67.7-11.1c-23.7,0-46.4,3.9-67.7,11.1c12-25.7,38.1-43.2,67.7-43.2
		C529.5,6.5,555.6,24.1,567.6,49.7z"/>
	<path class="st2" d="M438.4,72.5c-29,35.4-48.3,95.6-50.3,165.9h-75.9c4.3-69.9,47-129.5,107.2-158.2
		C425.5,77.3,431.9,74.7,438.4,72.5z"/>
	<path class="st2" d="M687.6,238.4h-75.9c-2-70.3-21.3-130.5-50.3-165.9c6.5,2.2,12.8,4.8,18.9,7.8
		C640.6,108.8,683.3,168.5,687.6,238.4z"/>
	<path class="st2" d="M588.2,238.4H411.6c3-96.7,42.2-176.3,88.3-176.3S585.2,141.7,588.2,238.4z"/>
	<g>
		<defs>
			<rect id="SVGID_00000050664584727986004200000016123024718107001756_" x="749" y="348.2" width="65.7" height="280.6"/>
		</defs>
		<use xlink:href="#SVGID_00000050664584727986004200000016123024718107001756_"  style="overflow:visible;fill:#F57C00;"/>
		<clipPath id="SVGID_00000133523065550188823190000016703345779628435376_">
			<use xlink:href="#SVGID_00000050664584727986004200000016123024718107001756_"  style="overflow:visible;"/>
		</clipPath>
	</g>
	<path class="st2" d="M656.2,416c-6.5,0-11.8-5.3-11.8-11.8V261.9h-45.3v65.3c0,6.5-5.3,11.8-11.8,11.8c-6.5,0-11.8-5.3-11.8-11.8
		v-65.3h-34.8v65.3c0,6.5-5.3,11.8-11.8,11.8c-6.5,0-11.8-5.3-11.8-11.8v-65.3h-34.9v65.3c0,6.5-5.2,11.8-11.8,11.8
		c-6.5,0-11.8-5.3-11.8-11.8v-65.3h-34.9v65.3c0,6.5-5.2,11.8-11.8,11.8c-6.5,0-11.8-5.3-11.8-11.8v-65.3h-45.3v142.3
		c0,6.5-5.3,11.8-11.8,11.8h-69.7v144.9h69.7c6.5,0,11.8,5.3,11.8,11.7v223.8h45.3V664c0-6.5,5.3-11.8,11.8-11.8
		c6.5,0,11.8,5.3,11.8,11.8v132.4h34.9V664c0-6.5,5.3-11.8,11.8-11.8c6.5,0,11.8,5.3,11.8,11.8v132.4h34.9V664
		c0-6.5,5.2-11.8,11.8-11.8c6.5,0,11.8,5.3,11.8,11.8v132.4h34.8V664c0-6.5,5.2-11.8,11.8-11.8c6.5,0,11.8,5.3,11.8,11.8v132.4h45.3
		V572.7c0-6.5,5.3-11.7,11.8-11.7h69.7V416H656.2z M499.9,611.9c-68.1,0-123.5-55.4-123.5-123.5c0-68.1,55.4-123.5,123.5-123.5
		s123.5,55.4,123.5,123.5C623.4,556.5,568,611.9,499.9,611.9z"/>
	<path class="st2" d="M499.9,388.5c-55.1,0-100,44.8-100,100c0,55.1,44.9,100,100,100c55.1,0,100-44.8,100-100
		C599.9,433.3,555,388.5,499.9,388.5z M499.9,545.8c-31.7,0-57.4-25.8-57.4-57.4s25.8-57.4,57.4-57.4c31.7,0,57.4,25.8,57.4,57.4
		S531.5,545.8,499.9,545.8z"/>
	<path class="st2" d="M293.7,819.9h412.4v65.7H293.7V819.9z"/>
	<g>
		<defs>
			<rect id="SVGID_00000155848565897246434580000004573001089723568029_" x="232.6" y="908.8" width="533.5" height="84.6"/>
		</defs>
		<use xlink:href="#SVGID_00000155848565897246434580000004573001089723568029_"  style="overflow:visible;fill:#325F8C;"/>
		<clipPath id="SVGID_00000171681623655249342700000007950725952187883951_">
			<use xlink:href="#SVGID_00000155848565897246434580000004573001089723568029_"  style="overflow:visible;"/>
		</clipPath>
		<g style="clip-path:url(#SVGID_00000171681623655249342700000007950725952187883951_);">
			<path class="st2" d="M233.7,909.1h532.5v84.4H233.7V909.1z"/>
		</g>
	</g>
</g>
<path class="st0" d="M500,545.4c-31.7,0-57.4-25.8-57.4-57.4s25.8-57.4,57.4-57.4c31.7,0,57.4,25.8,57.4,57.4S531.7,545.4,500,545.4
	z"/>
<path class="st2" d="M505.6,455c1.1,0.2,2.2,0.4,3.3,0.7c1.1,0.3,2.1,0.6,3.2,1c1,0.4,2.1,0.8,3,1.3c1,0.5,2,1,2.9,1.6
	c0.9,0.6,1.9,1.2,2.7,1.9c0.9,0.7,1.7,1.4,2.5,2.2c0.8,0.8,1.6,1.6,2.3,2.4c0.7,0.8,1.4,1.7,2.1,2.6c0.6,0.9,1.2,1.8,1.8,2.8
	c0.6,1,1.1,2,1.5,3c0.5,1,0.9,2,1.2,3.1c0.4,1,0.7,2.1,0.9,3.2c0.3,1.1,0.4,2.2,0.6,3.3c0.1,1.1,0.2,2.2,0.3,3.3s0,2.2-0.1,3.3
	c-0.1,1.1-0.2,2.2-0.4,3.3c-0.2,1.1-0.4,2.2-0.7,3.2c-0.3,1.1-0.6,2.1-1,3.2c-0.4,1-0.8,2.1-1.3,3c-0.5,1-1,2-1.6,2.9
	c-0.6,0.9-1.2,1.9-1.9,2.7c-0.7,0.9-1.4,1.7-2.2,2.5c-0.8,0.8-1.6,1.6-2.4,2.3s-1.7,1.4-2.6,2.1s-1.8,1.2-2.8,1.8
	c-1,0.6-2,1.1-3,1.5c-1,0.5-2,0.9-3.1,1.2c-1,0.4-2.1,0.7-3.2,0.9c-1.1,0.3-2.2,0.4-3.3,0.6c-1.1,0.1-2.2,0.2-3.3,0.3
	c-1.1,0-2.2,0-3.3-0.1c-1.1-0.1-2.2-0.2-3.3-0.4s-2.2-0.4-3.3-0.7c-1.1-0.3-2.1-0.6-3.2-1c-1-0.4-2.1-0.8-3-1.3s-2-1-2.9-1.6
	c-0.9-0.6-1.9-1.2-2.7-1.9c-0.9-0.7-1.7-1.4-2.5-2.2c-0.8-0.8-1.6-1.6-2.3-2.4c-0.7-0.8-1.4-1.7-2.1-2.6c-0.6-0.9-1.2-1.8-1.8-2.8
	s-1.1-2-1.5-3c-0.5-1-0.9-2-1.2-3.1c-0.3-1-0.7-2.1-0.9-3.2c-0.2-1.1-0.4-2.2-0.6-3.3c-0.1-1.1-0.2-2.2-0.3-3.3c0-1.1,0-2.2,0.1-3.3
	c0.1-1.1,0.2-2.2,0.4-3.3c0.2-1.1,0.4-2.2,0.7-3.3c0.3-1.1,0.6-2.1,1-3.2c0.4-1,0.8-2.1,1.3-3c0.5-1,1-2,1.6-2.9
	c0.6-0.9,1.2-1.9,1.9-2.7c0.7-0.9,1.4-1.7,2.2-2.5c0.8-0.8,1.6-1.6,2.4-2.3c0.8-0.7,1.7-1.4,2.6-2.1c0.9-0.6,1.8-1.2,2.8-1.8
	c1-0.6,2-1.1,3-1.5c1-0.5,2-0.9,3.1-1.2c1-0.4,2.1-0.7,3.2-0.9c1.1-0.2,2.2-0.4,3.3-0.6c1.1-0.1,2.2-0.2,3.3-0.3
	c1.1,0,2.2,0,3.3,0.1C503.5,454.7,504.6,454.9,505.6,455z"/>
</svg>
