<?xml version="1.0" encoding="utf-8"?>
<!-- Generator: Adobe Illustrator 27.5.0, SVG Export Plug-In . SVG Version: 6.00 Build 0)  -->
<svg version="1.1" id="Camada_1" xmlns="http://www.w3.org/2000/svg" xmlns:xlink="http://www.w3.org/1999/xlink" x="0px" y="0px"
	 viewBox="0 0 1000 1000" style="enable-background:new 0 0 1000 1000;" xml:space="preserve">
<style type="text/css">
	.st0{fill:none;stroke:#FFFFFF;stroke-width:4;stroke-linecap:round;stroke-linejoin:round;}
	.st1{clip-path:url(#SVGID_00000021110518720812647000000018415923660805002163_);}
	.st2{fill:#F57C00;}
	.st3{fill:#325F8C;}
	.st4{clip-path:url(#SVGID_00000073688182020349512870000017486894469549845635_);}
</style>
<g>
	<path class="st0" d="M649.8,896.1l8,6l-8,6"/>
	<g>
		<defs>
			<rect id="SVGID_1_" x="82.5" y="442.7" width="537.3" height="537.2"/>
		</defs>
		<clipPath id="SVGID_00000157995476296076062100000006227672936492588450_">
			<use xlink:href="#SVGID_1_"  style="overflow:visible;"/>
		</clipPath>
		<g style="clip-path:url(#SVGID_00000157995476296076062100000006227672936492588450_);">
			<path class="st2" d="M550.8,831.5c-6.4,10.6-13.6,20.7-21.5,30.2c-17.4,20.8-38.5,38.5-62,52.2c-19.9,11.5-41.3,20-63.6,25.2
				c-2.5,0.6-5,1.1-7.5,1.6c-5,1-10,1.8-15.1,2.5c-10.1,1.3-20.3,2-30.6,2c-128.6,0-233.3-104.6-233.3-233.3
				c0-67.9,29.5-132.3,81-176.7c42.3-36.5,96.4-56.5,152.3-56.5c128.6,0,233.3,104.6,233.3,233.3
				C583.8,754.1,572.4,795.5,550.8,831.5z M350.5,443.9c-62.7,0-122.8,21.8-170.8,61.5c-3.2,2.6-6.3,5.4-9.4,8.2
				c-55.8,50.7-87.7,123-87.7,198.3c0,147.8,120.2,268,268,268c92.2,0,176.8-46.5,226.3-124.5c6.7-10.6,12.8-21.8,17.9-33.1
				c13.8-30.4,21.6-62.7,23.3-96c0.2-4.8,0.4-9.5,0.4-14.4C618.5,564.1,498.3,443.9,350.5,443.9"/>
		</g>
	</g>
	<path class="st3" d="M350.5,488.8c-51.8,0-101.9,18-141.8,50.8c-1.3,1.1-2.6,2.1-3.8,3.2c-46.1,39.8-73.8,96.4-77.1,156.8
		c-0.2,4-0.3,8.1-0.3,12.1c0,123,100.1,223,223.1,223c78,0,151.4-41.6,191.5-108.6c0.7-1.1,1.3-2.3,2-3.4c0.6-1,1.2-2.1,1.8-3.1
		c0.7-1.2,1.2-2.3,1.9-3.5c0.5-1,1.1-2.1,1.6-3.1c0.6-1.2,1.2-2.5,1.8-3.7c0.5-1,1-2,1.5-3c0.6-1.3,1.2-2.6,1.7-3.9
		c0.4-1,0.9-1.9,1.3-2.9c0.6-1.4,1.1-2.7,1.7-4.1c0.4-0.9,0.8-1.9,1.1-2.8c0.6-1.4,1.1-2.9,1.6-4.3c0.3-0.9,0.7-1.8,1-2.7
		c0.5-1.5,1-3,1.5-4.5c0.3-0.9,0.6-1.7,0.9-2.6c0.5-1.5,0.9-3.1,1.3-4.6c0.3-0.9,0.5-1.7,0.8-2.6c0.4-1.6,0.8-3.1,1.2-4.7
		c0.2-0.8,0.4-1.7,0.6-2.5c0.4-1.6,0.7-3.2,1.1-4.8c0.2-0.8,0.4-1.7,0.6-2.5c0.3-1.5,0.6-3.1,0.9-4.7c0.2-0.9,0.3-1.8,0.5-2.7
		c0.3-1.5,0.5-3,0.7-4.5c0.1-1,0.3-1.9,0.4-2.9c0.2-1.5,0.4-3,0.5-4.5c0.1-1,0.3-2,0.4-3c0.2-1.6,0.3-3.2,0.4-4.7
		c0.1-0.9,0.2-1.8,0.2-2.8c0.1-1.6,0.2-3.2,0.2-4.8c0-0.9,0.1-1.8,0.1-2.8c0.1-2.5,0.1-5,0.1-7.5
		C573.6,588.9,473.5,488.8,350.5,488.8"/>
	<g>
		<defs>
			<rect id="SVGID_00000163065777195362585760000011246392760848429213_" x="209.1" y="20.1" width="708.4" height="752"/>
		</defs>
		<clipPath id="SVGID_00000162325773038596226790000017671141206897005972_">
			<use xlink:href="#SVGID_00000163065777195362585760000011246392760848429213_"  style="overflow:visible;"/>
		</clipPath>
		<g style="clip-path:url(#SVGID_00000162325773038596226790000017671141206897005972_);">
			<path class="st3" d="M751.7,20.4C704,20.4,658.6,41,627.1,77l-0.3,0.3L209.9,471.8c0.2-0.1,0.5-0.3,0.7-0.4
				c1.4-0.8,2.8-1.6,4.2-2.4c0.6-0.3,1.2-0.7,1.8-1c1.2-0.6,2.3-1.3,3.5-1.9c0.5-0.3,1.1-0.6,1.6-0.9c1.6-0.8,3.2-1.6,4.8-2.4
				c0.6-0.3,1.1-0.6,1.7-0.8c1.2-0.6,2.3-1.1,3.4-1.7c0.6-0.3,1.3-0.6,1.9-0.9c1.3-0.6,2.6-1.2,3.9-1.8c0.6-0.3,1.1-0.5,1.7-0.8
				c1.5-0.6,2.9-1.3,4.4-1.9c0.7-0.3,1.3-0.5,2-0.8c1.1-0.5,2.2-0.9,3.4-1.4c0.7-0.3,1.3-0.5,1.9-0.8c1.6-0.6,3.3-1.2,4.9-1.8
				c0.6-0.2,1.2-0.4,1.8-0.6c1.2-0.4,2.4-0.8,3.6-1.2c0.7-0.2,1.4-0.5,2.1-0.7c1.3-0.4,2.5-0.8,3.8-1.2c0.5-0.2,1-0.3,1.6-0.5
				c1.7-0.5,3.4-1,5.1-1.5c0.7-0.2,1.4-0.4,2-0.6c1.2-0.3,2.4-0.7,3.6-1c0.7-0.2,1.3-0.3,2-0.5c1.7-0.4,3.5-0.9,5.2-1.3
				c0.5-0.1,1-0.2,1.5-0.3c1.4-0.3,2.7-0.6,4.1-0.9c0.7-0.2,1.3-0.3,2-0.4c1.4-0.3,2.7-0.6,4.1-0.8c0.5-0.1,1-0.2,1.5-0.3
				c1.8-0.3,3.6-0.6,5.4-0.9c0.6-0.1,1.2-0.2,1.8-0.3c1.4-0.2,2.7-0.4,4.1-0.6c0.6-0.1,1.2-0.2,1.8-0.3c1.8-0.2,3.7-0.5,5.5-0.7
				c0.3,0,0.5-0.1,0.8-0.1c1.6-0.2,3.3-0.4,4.9-0.5c0.6-0.1,1.2-0.1,1.8-0.2c1.5-0.1,3-0.3,4.5-0.4c0.4,0,0.9-0.1,1.3-0.1
				c1.9-0.1,3.8-0.2,5.7-0.3c0.5,0,0.9,0,1.4,0c1.5-0.1,3-0.1,4.5-0.2c0.5,0,1.1,0,1.6-0.1c1.9,0,3.9-0.1,5.8-0.1
				c74.3,0,144.2,28.9,196.7,81.5c52.5,52.5,81.5,122.4,81.5,196.7c0,2.5,0,5-0.1,7.5c0,0.3,0,0.6,0,0.8c-0.1,2.2-0.1,4.4-0.3,6.7
				c0,0.1,0,0.1,0,0.1c-0.8,14.9-2.8,29.6-5.9,44c0,0,0,0,0,0l266.4-492.8l0.1-0.2c18.4-27.4,28.1-59.3,28.1-92.3
				C917.2,94.6,842.9,20.4,751.7,20.4"/>
		</g>
	</g>
</g>
</svg>
